<?xml version="1.0" encoding="UTF-8" standalone="no"?>
<!-- Created with Inkscape (http://www.inkscape.org/) -->

<svg
   xmlns:dc="http://purl.org/dc/elements/1.1/"
   xmlns:cc="http://creativecommons.org/ns#"
   xmlns:rdf="http://www.w3.org/1999/02/22-rdf-syntax-ns#"
   xmlns:svg="http://www.w3.org/2000/svg"
   xmlns="http://www.w3.org/2000/svg"
   xmlns:xlink="http://www.w3.org/1999/xlink"
   xmlns:sodipodi="http://sodipodi.sourceforge.net/DTD/sodipodi-0.dtd"
   xmlns:inkscape="http://www.inkscape.org/namespaces/inkscape"
   id="svg2965"
   sodipodi:docname="email.svg"
   viewBox="0 0 144 144"
   version="1.1"
   inkscape:version="0.48.3.1 r9886"
   width="100%"
   height="100%"
   inkscape:export-filename="/home/koudri/Images/android/healthrecord/email.png"
   inkscape:export-xdpi="74"
   inkscape:export-ydpi="74">
  <defs
     id="defs2967">
    <linearGradient
       id="linearGradient5480"
       y2="-148.13"
       gradientUnits="userSpaceOnUse"
       x2="387.75"
       y1="-298.54001"
       x1="379.92001">
      <stop
         id="stop3954"
         style="stop-color:#2c2d28;stop-opacity:1;"
         offset="0" />
      <stop
         id="stop3956"
         style="stop-color:#0146a8;stop-opacity:0"
         offset="1" />
    </linearGradient>
    <linearGradient
       id="linearGradient3383"
       y2="-147.97"
       gradientUnits="userSpaceOnUse"
       y1="-310.04999"
       gradientTransform="matrix(0.93571,0,0,0.97143,689.99,669.67)"
       x2="387.75"
       x1="381.89001"
       inkscape:collect="always">
      <stop
         id="stop3919-6"
         style="stop-color:#edf4fd;stop-opacity:.52846"
         offset="0" />
      <stop
         id="stop3921-27"
         style="stop-color:#175bb3;stop-opacity:0"
         offset="1" />
    </linearGradient>
    <linearGradient
       inkscape:collect="always"
       xlink:href="#linearGradient3383"
       id="linearGradient2995"
       gradientUnits="userSpaceOnUse"
       gradientTransform="matrix(0.61431866,0,0,0.62983389,234.76742,652.92135)"
       x1="381.89001"
       y1="-310.04999"
       x2="387.75"
       y2="-147.97" />
    <linearGradient
       inkscape:collect="always"
       xlink:href="#linearGradient5480"
       id="linearGradient3769"
       gradientUnits="userSpaceOnUse"
       x1="379.92001"
       y1="-298.54001"
       x2="387.75"
       y2="-148.13" />
    <style
       id="style6"
       type="text/css">.fil2 {fill:#FEFEFE}
    .fil1 {fill:#27576D}
    .fil0 {fill:#7AA3B0}
    .fil3 {fill:#27576D;fill-rule:nonzero}</style>
    <style
       id="style5339"
       type="text/css">.fil0 {fill:#1B1C1F}
    .fil1 {fill:#1B1C1F;fill-rule:nonzero}</style>
    <linearGradient
       y2="-147.97"
       x2="387.75"
       y1="-310.04999"
       x1="381.89001"
       gradientTransform="matrix(0.61431866,0,0,0.62983389,205.42267,608.04169)"
       gradientUnits="userSpaceOnUse"
       id="linearGradient3160"
       xlink:href="#linearGradient3913"
       inkscape:collect="always" />
    <linearGradient
       inkscape:collect="always"
       x1="381.89001"
       x2="387.75"
       gradientTransform="matrix(0.93571,0,0,0.97143,738.55,1229)"
       y1="-310.04999"
       gradientUnits="userSpaceOnUse"
       y2="-147.97"
       id="linearGradient3913">
      <stop
         offset="0"
         style="stop-color:#edf4fd;stop-opacity:.52846"
         id="stop3919-13" />
      <stop
         offset="1"
         style="stop-color:#175bb3;stop-opacity:0"
         id="stop3921-7" />
    </linearGradient>
    <linearGradient
       inkscape:collect="always"
       x1="379.92001"
       y1="-298.54001"
       x2="387.75"
       gradientUnits="userSpaceOnUse"
       y2="-148.13"
       id="linearGradient5440">
      <stop
         offset="0"
         style="stop-color:#0146a8"
         id="stop3954-1" />
      <stop
         offset="1"
         style="stop-color:#0146a8;stop-opacity:0"
         id="stop3956-1" />
    </linearGradient>
    <linearGradient
       inkscape:collect="always"
       xlink:href="#linearGradient5440"
       id="linearGradient3927"
       gradientUnits="userSpaceOnUse"
       x1="379.92001"
       y1="-298.54001"
       x2="387.75"
       y2="-148.13" />
    <linearGradient
       inkscape:collect="always"
       xlink:href="#linearGradient3913"
       id="linearGradient3929"
       gradientUnits="userSpaceOnUse"
       gradientTransform="matrix(0.61431866,0,0,0.62983389,205.42267,608.04169)"
       x1="381.89001"
       y1="-310.04999"
       x2="387.75"
       y2="-147.97" />
    <linearGradient
       inkscape:collect="always"
       xlink:href="#linearGradient3913"
       id="linearGradient3944"
       gradientUnits="userSpaceOnUse"
       gradientTransform="matrix(0.61431866,0,0,0.62983389,3.57143,700.96977)"
       x1="381.89001"
       y1="-310.04999"
       x2="387.75"
       y2="-147.97" />
  </defs>
  <sodipodi:namedview
     id="base"
     bordercolor="#666666"
     inkscape:pageshadow="2"
     inkscape:window-y="0"
     pagecolor="#ffffff"
     inkscape:window-height="750"
     inkscape:window-maximized="1"
     inkscape:zoom="1.4"
     inkscape:window-x="1440"
     showgrid="false"
     borderopacity="1.0"
     inkscape:current-layer="layer1"
     inkscape:cx="-125.61799"
     inkscape:cy="40.386641"
     inkscape:window-width="1280"
     inkscape:pageopacity="0.0"
     inkscape:document-units="px"
     fit-margin-top="0"
     fit-margin-left="0"
     fit-margin-right="0"
     fit-margin-bottom="0" />
  <g
     id="layer1"
     inkscape:label="Layer 1"
     inkscape:groupmode="layer"
     transform="translate(-400.97164,-450.88536)">
    <path
       sodipodi:cx="387.75485"
       sodipodi:cy="-208.45078"
       transform="matrix(0.65652677,0,0,0.65652676,218.4002,659.73887)"
       d="m 497.42289,-208.45078 a 109.66804,109.66804 0 1 1 -219.33608,0 109.66804,109.66804 0 1 1 219.33608,0 z"
       sodipodi:type="arc"
       style="fill:#2c2d28;stroke-width:1.89999998000000003;fill-opacity:1"
       sodipodi:ry="109.66804"
       sodipodi:rx="109.66804"
       id="path5063" />
    <path
       sodipodi:cx="387.75485"
       sodipodi:cy="-208.45078"
       transform="matrix(0.61431866,0,0,0.62983389,234.76742,655.7785)"
       d="m 497.42289,-208.45078 a 109.66804,109.66804 0 1 1 -219.33608,0 109.66804,109.66804 0 1 1 219.33608,0 z"
       sodipodi:type="arc"
       style="fill:url(#linearGradient3769);stroke-width:1.89999998"
       sodipodi:ry="109.66804"
       sodipodi:rx="109.66804"
       id="path5065" />
    <path
       inkscape:connector-curvature="0"
       d="m 472.96189,452.55296 c -37.20799,0 -67.37934,30.94286 -67.37934,69.08897 0,2.4329 0.12993,4.82475 0.3693,7.19288 32.87032,12.14114 83.10316,20.98668 134.38446,-6.8687 4.6e-4,-0.10824 0,-0.21582 0,-0.32418 0,-38.14741 -30.16806,-69.08897 -67.37278,-69.08897 z"
       style="fill:url(#linearGradient2995);stroke-width:1.89999998"
       id="path5067" />
    <rect
       id="rect6265"
       style="fill:none;stroke:#e4e355;stroke-width:6.80297327;stroke-opacity:1"
       ry="6.7371688"
       height="77.954803"
       width="48.37991"
       y="487.52832"
       x="449.01508" />
    <rect
       x="456.43689"
       y="494.66284"
       width="33.535427"
       height="23.886786"
       ry="4.4786863"
       style="fill:#e4e355;fill-opacity:1"
       id="rect6267" />
    <path
       id="path6269"
       sodipodi:rx="0.26785713"
       sodipodi:ry="0.26785713"
       style="fill:#e4e355;fill-opacity:1;fill-rule:evenodd"
       sodipodi:type="arc"
       d="m 8.2142859,144.6207 a 0.26785713,0.26785713 0 1 1 -0.5357143,0 0.26785713,0.26785713 0 1 1 0.5357143,0 z"
       transform="matrix(16.658601,0,0,13.719365,328.74425,-1452.3898)"
       sodipodi:cy="144.6207"
       sodipodi:cx="7.9464288" />
    <path
       id="path6271"
       sodipodi:rx="0.26785713"
       sodipodi:ry="0.26785713"
       style="fill:#e4e355;fill-opacity:1;fill-rule:evenodd"
       sodipodi:type="arc"
       d="m 8.2142859,144.6207 a 0.26785713,0.26785713 0 1 1 -0.5357143,0 0.26785713,0.26785713 0 1 1 0.5357143,0 z"
       transform="matrix(16.658601,0,0,13.719365,341.01516,-1452.3898)"
       sodipodi:cy="144.6207"
       sodipodi:cx="7.9464288" />
    <path
       id="path6273"
       sodipodi:rx="0.26785713"
       sodipodi:ry="0.26785713"
       style="fill:#e4e355;fill-opacity:1;fill-rule:evenodd"
       sodipodi:type="arc"
       d="m 8.2142859,144.6207 a 0.26785713,0.26785713 0 1 1 -0.5357143,0 0.26785713,0.26785713 0 1 1 0.5357143,0 z"
       transform="matrix(16.658601,0,0,13.719365,352.91457,-1452.3898)"
       sodipodi:cy="144.6207"
       sodipodi:cx="7.9464288" />
    <path
       id="path6275"
       sodipodi:rx="0.26785713"
       sodipodi:ry="0.26785713"
       style="fill:#e4e355;fill-opacity:1;fill-rule:evenodd"
       sodipodi:type="arc"
       d="m 8.2142859,144.6207 a 0.26785713,0.26785713 0 1 1 -0.5357143,0 0.26785713,0.26785713 0 1 1 0.5357143,0 z"
       transform="matrix(16.658601,0,0,13.719365,328.74425,-1441.1399)"
       sodipodi:cy="144.6207"
       sodipodi:cx="7.9464288" />
    <path
       id="path6277"
       sodipodi:rx="0.26785713"
       sodipodi:ry="0.26785713"
       style="fill:#e4e355;fill-opacity:1;fill-rule:evenodd"
       sodipodi:type="arc"
       d="m 8.2142859,144.6207 a 0.26785713,0.26785713 0 1 1 -0.5357143,0 0.26785713,0.26785713 0 1 1 0.5357143,0 z"
       transform="matrix(16.658601,0,0,13.719365,340.64317,-1441.1399)"
       sodipodi:cy="144.6207"
       sodipodi:cx="7.9464288" />
    <path
       id="path6279"
       sodipodi:rx="0.26785713"
       sodipodi:ry="0.26785713"
       style="fill:#e4e355;fill-opacity:1;fill-rule:evenodd"
       sodipodi:type="arc"
       d="m 8.2142859,144.6207 a 0.26785713,0.26785713 0 1 1 -0.5357143,0 0.26785713,0.26785713 0 1 1 0.5357143,0 z"
       transform="matrix(16.658601,0,0,13.719365,352.91457,-1441.1399)"
       sodipodi:cy="144.6207"
       sodipodi:cx="7.9464288" />
    <path
       id="path6281"
       sodipodi:rx="0.26785713"
       sodipodi:ry="0.26785713"
       style="fill:#e4e355;fill-opacity:1;fill-rule:evenodd"
       sodipodi:type="arc"
       d="m 8.2142859,144.6207 a 0.26785713,0.26785713 0 1 1 -0.5357143,0 0.26785713,0.26785713 0 1 1 0.5357143,0 z"
       transform="matrix(16.658601,0,0,13.719365,328.74425,-1430.3016)"
       sodipodi:cy="144.6207"
       sodipodi:cx="7.9464288" />
    <path
       id="path6283"
       sodipodi:rx="0.26785713"
       sodipodi:ry="0.26785713"
       style="fill:#e4e355;fill-opacity:1;fill-rule:evenodd"
       sodipodi:type="arc"
       d="m 8.2142859,144.6207 a 0.26785713,0.26785713 0 1 1 -0.5357143,0 0.26785713,0.26785713 0 1 1 0.5357143,0 z"
       transform="matrix(16.658601,0,0,13.719365,340.27135,-1430.3016)"
       sodipodi:cy="144.6207"
       sodipodi:cx="7.9464288" />
    <path
       id="path6285"
       sodipodi:rx="0.26785713"
       sodipodi:ry="0.26785713"
       style="fill:#e4e355;fill-opacity:1;fill-rule:evenodd"
       sodipodi:type="arc"
       d="m 8.2142859,144.6207 a 0.26785713,0.26785713 0 1 1 -0.5357143,0 0.26785713,0.26785713 0 1 1 0.5357143,0 z"
       transform="matrix(16.658601,0,0,13.719365,352.91457,-1430.3016)"
       sodipodi:cy="144.6207"
       sodipodi:cx="7.9464288" />
    <path
       id="path6311"
       d="M 459.26346,485.05899 V 467.29653"
       style="fill:none;stroke:#e4e355;stroke-width:9.07063198;stroke-linecap:round;stroke-opacity:1"
       inkscape:connector-curvature="0" />
  </g>
  <metadata
     id="metadata3069">
    <rdf:RDF>
      <cc:Work>
        <dc:format>image/svg+xml</dc:format>
        <dc:type
           rdf:resource="http://purl.org/dc/dcmitype/StillImage" />
        <cc:license
           rdf:resource="http://creativecommons.org/licenses/publicdomain/" />
        <dc:publisher>
          <cc:Agent
             rdf:about="http://openclipart.org/">
            <dc:title>Openclipart</dc:title>
          </cc:Agent>
        </dc:publisher>
        <dc:title></dc:title>
      </cc:Work>
      <cc:License
         rdf:about="http://creativecommons.org/licenses/publicdomain/">
        <cc:permits
           rdf:resource="http://creativecommons.org/ns#Reproduction" />
        <cc:permits
           rdf:resource="http://creativecommons.org/ns#Distribution" />
        <cc:permits
           rdf:resource="http://creativecommons.org/ns#DerivativeWorks" />
      </cc:License>
    </rdf:RDF>
  </metadata>
</svg>
