<?xml version="1.0" encoding="UTF-8" standalone="no"?>
<!-- Created with Inkscape (http://www.inkscape.org/) -->

<svg
   xmlns:dc="http://purl.org/dc/elements/1.1/"
   xmlns:cc="http://creativecommons.org/ns#"
   xmlns:rdf="http://www.w3.org/1999/02/22-rdf-syntax-ns#"
   xmlns:svg="http://www.w3.org/2000/svg"
   xmlns="http://www.w3.org/2000/svg"
   xmlns:xlink="http://www.w3.org/1999/xlink"
   xmlns:sodipodi="http://sodipodi.sourceforge.net/DTD/sodipodi-0.dtd"
   xmlns:inkscape="http://www.inkscape.org/namespaces/inkscape"
   id="svg2965"
   sodipodi:docname="delete.svg"
   viewBox="0 0 144.00958 143.99036"
   version="1.1"
   inkscape:version="0.48.3.1 r9886"
   width="100%"
   height="100%"
   inkscape:export-filename="/home/koudri/Images/android/healthrecord/remove.png"
   inkscape:export-xdpi="90"
   inkscape:export-ydpi="90">
  <defs
     id="defs2967">
    <linearGradient
       id="linearGradient5480"
       y2="-148.13"
       gradientUnits="userSpaceOnUse"
       x2="387.75"
       y1="-298.54001"
       x1="379.92001">
      <stop
         id="stop3954"
         style="stop-color:#2c2d28;stop-opacity:1;"
         offset="0" />
      <stop
         id="stop3956"
         style="stop-color:#0146a8;stop-opacity:0"
         offset="1" />
    </linearGradient>
    <linearGradient
       id="linearGradient3383"
       y2="-147.97"
       gradientUnits="userSpaceOnUse"
       y1="-310.04999"
       gradientTransform="matrix(0.93571,0,0,0.97143,689.99,669.67)"
       x2="387.75"
       x1="381.89001"
       inkscape:collect="always">
      <stop
         id="stop3919-6"
         style="stop-color:#edf4fd;stop-opacity:.52846"
         offset="0" />
      <stop
         id="stop3921-27"
         style="stop-color:#175bb3;stop-opacity:0"
         offset="1" />
    </linearGradient>
    <style
       id="style6"
       type="text/css">.fil2 {fill:#FEFEFE}
    .fil1 {fill:#27576D}
    .fil0 {fill:#7AA3B0}
    .fil3 {fill:#27576D;fill-rule:nonzero}</style>
    <style
       id="style5339"
       type="text/css">.fil0 {fill:#1B1C1F}
    .fil1 {fill:#1B1C1F;fill-rule:nonzero}</style>
    <linearGradient
       y2="-147.97"
       x2="387.75"
       y1="-310.04999"
       x1="381.89001"
       gradientTransform="matrix(0.61431866,0,0,0.62983389,205.42267,608.04169)"
       gradientUnits="userSpaceOnUse"
       id="linearGradient3160"
       xlink:href="#linearGradient3913"
       inkscape:collect="always" />
    <linearGradient
       inkscape:collect="always"
       x1="381.89001"
       x2="387.75"
       gradientTransform="matrix(0.93571,0,0,0.97143,738.55,1229)"
       y1="-310.04999"
       gradientUnits="userSpaceOnUse"
       y2="-147.97"
       id="linearGradient3913">
      <stop
         offset="0"
         style="stop-color:#edf4fd;stop-opacity:.52846"
         id="stop3919-13" />
      <stop
         offset="1"
         style="stop-color:#175bb3;stop-opacity:0"
         id="stop3921-7" />
    </linearGradient>
    <linearGradient
       inkscape:collect="always"
       x1="379.92001"
       y1="-298.54001"
       x2="387.75"
       gradientUnits="userSpaceOnUse"
       y2="-148.13"
       id="linearGradient5440">
      <stop
         offset="0"
         style="stop-color:#0146a8"
         id="stop3954-1" />
      <stop
         offset="1"
         style="stop-color:#0146a8;stop-opacity:0"
         id="stop3956-1" />
    </linearGradient>
    <linearGradient
       inkscape:collect="always"
       xlink:href="#linearGradient5440"
       id="linearGradient3927"
       gradientUnits="userSpaceOnUse"
       x1="379.92001"
       y1="-298.54001"
       x2="387.75"
       y2="-148.13" />
    <linearGradient
       inkscape:collect="always"
       xlink:href="#linearGradient3913"
       id="linearGradient3929"
       gradientUnits="userSpaceOnUse"
       gradientTransform="matrix(0.61431866,0,0,0.62983389,205.42267,608.04169)"
       x1="381.89001"
       y1="-310.04999"
       x2="387.75"
       y2="-147.97" />
    <linearGradient
       inkscape:collect="always"
       xlink:href="#linearGradient3913"
       id="linearGradient3944"
       gradientUnits="userSpaceOnUse"
       gradientTransform="matrix(0.61431866,0,0,0.62983389,3.57143,700.96977)"
       x1="381.89001"
       y1="-310.04999"
       x2="387.75"
       y2="-147.97" />
    <linearGradient
       x1="379.92001"
       y1="-298.54001"
       x2="387.75"
       gradientUnits="userSpaceOnUse"
       y2="-148.13"
       id="linearGradient5480-6">
      <stop
         offset="0"
         style="stop-color:#2c2d28;stop-opacity:1;"
         id="stop3954-17" />
      <stop
         offset="1"
         style="stop-color:#0146a8;stop-opacity:0"
         id="stop3956-4" />
    </linearGradient>
    <linearGradient
       x1="379.92001"
       y1="-298.54001"
       x2="387.75"
       gradientUnits="userSpaceOnUse"
       y2="-148.13"
       id="linearGradient5480-8">
      <stop
         offset="0"
         style="stop-color:#2c2d28;stop-opacity:1;"
         id="stop3954-8" />
      <stop
         offset="1"
         style="stop-color:#0146a8;stop-opacity:0"
         id="stop3956-7" />
    </linearGradient>
    <linearGradient
       inkscape:collect="always"
       xlink:href="#linearGradient5480"
       id="linearGradient4195"
       gradientUnits="userSpaceOnUse"
       gradientTransform="translate(327.35208,223.1963)"
       x1="148.34306"
       y1="229.52823"
       x2="147.35265"
       y2="383.81396" />
    <linearGradient
       inkscape:collect="always"
       xlink:href="#linearGradient3383"
       id="linearGradient4197"
       gradientUnits="userSpaceOnUse"
       gradientTransform="matrix(0.97436691,0,0,1.2046199,123.38905,-290.35486)"
       x1="361.67639"
       y1="614.63672"
       x2="362.40973"
       y2="713.20813" />
    <linearGradient
       x1="379.92001"
       y1="-298.54001"
       x2="387.75"
       gradientUnits="userSpaceOnUse"
       y2="-148.13"
       id="linearGradient5480-2">
      <stop
         offset="0"
         style="stop-color:#2c2d28;stop-opacity:1;"
         id="stop3954-5" />
      <stop
         offset="1"
         style="stop-color:#0146a8;stop-opacity:0"
         id="stop3956-16" />
    </linearGradient>
    <style
       type="text/css"
       id="style5339-3">.fil0 {fill:#1B1C1F}
    .fil1 {fill:#1B1C1F;fill-rule:nonzero}</style>
    <style
       type="text/css"
       id="style6-2">.fil2 {fill:#FEFEFE}
    .fil1 {fill:#27576D}
    .fil0 {fill:#7AA3B0}
    .fil3 {fill:#27576D;fill-rule:nonzero}</style>
    <linearGradient
       y2="-148.13"
       x2="387.75"
       y1="-298.54001"
       x1="379.92001"
       gradientUnits="userSpaceOnUse"
       id="linearGradient3769-3"
       xlink:href="#linearGradient5480-81"
       inkscape:collect="always" />
    <linearGradient
       y2="-147.97"
       x2="387.75"
       y1="-310.04999"
       x1="381.89001"
       gradientTransform="matrix(0.61431866,0,0,0.62983389,234.76742,652.92135)"
       gradientUnits="userSpaceOnUse"
       id="linearGradient2995-0"
       xlink:href="#linearGradient3383-3"
       inkscape:collect="always" />
    <linearGradient
       inkscape:collect="always"
       x1="381.89001"
       x2="387.75"
       gradientTransform="matrix(0.93571,0,0,0.97143,689.99,669.67)"
       y1="-310.04999"
       gradientUnits="userSpaceOnUse"
       y2="-147.97"
       id="linearGradient3383-3">
      <stop
         offset="0"
         style="stop-color:#edf4fd;stop-opacity:.52846"
         id="stop3919-6-2" />
      <stop
         offset="1"
         style="stop-color:#175bb3;stop-opacity:0"
         id="stop3921-27-0" />
    </linearGradient>
    <linearGradient
       x1="379.92001"
       y1="-298.54001"
       x2="387.75"
       gradientUnits="userSpaceOnUse"
       y2="-148.13"
       id="linearGradient5480-81">
      <stop
         offset="0"
         style="stop-color:#2c2d28;stop-opacity:1;"
         id="stop3954-81" />
      <stop
         offset="1"
         style="stop-color:#0146a8;stop-opacity:0"
         id="stop3956-0" />
    </linearGradient>
    <linearGradient
       inkscape:collect="always"
       xlink:href="#linearGradient3383-3"
       id="linearGradient4426"
       gradientUnits="userSpaceOnUse"
       gradientTransform="matrix(0.61431866,0,0,0.62983389,-57.03734,537.84176)"
       x1="381.89001"
       y1="-310.04999"
       x2="387.75"
       y2="-147.97" />
    <radialGradient
       r="91.945999"
       cy="21.809"
       cx="66.348"
       gradientUnits="userSpaceOnUse"
       id="radialGradient3815"
       xlink:href="#XMLID_2_"
       inkscape:collect="always" />
    <filter
       color-interpolation-filters="sRGB"
       inkscape:label="Drop Shadow"
       id="filter3803">
      <feFlood
         result="flood"
         flood-color="rgb(0,0,0)"
         flood-opacity="0.5"
         id="feFlood3805" />
      <feComposite
         result="composite1"
         operator="in"
         in="flood"
         in2="SourceGraphic"
         id="feComposite3807" />
      <feGaussianBlur
         result="blur"
         stdDeviation="2"
         id="feGaussianBlur3809" />
      <feOffset
         result="offset"
         dy="4"
         dx="4"
         id="feOffset3811" />
      <feComposite
         result="composite2"
         operator="over"
         in="SourceGraphic"
         in2="offset"
         id="feComposite3813" />
    </filter>
    <radialGradient
       inkscape:collect="always"
       xlink:href="#XMLID_2_"
       id="radialGradient3165"
       gradientUnits="userSpaceOnUse"
       cx="66.348"
       cy="21.809"
       r="91.945999" />
    <linearGradient
       inkscape:collect="always"
       xlink:href="#linearGradient3383"
       id="linearGradient3506"
       gradientUnits="userSpaceOnUse"
       gradientTransform="matrix(0.97436691,0,0,1.2046199,127.69623,-295.66813)"
       x1="361.67639"
       y1="614.63672"
       x2="362.40973"
       y2="713.20813" />
    <linearGradient
       inkscape:collect="always"
       xlink:href="#linearGradient5480"
       id="linearGradient3509"
       gradientUnits="userSpaceOnUse"
       gradientTransform="translate(331.65926,217.88303)"
       x1="148.34306"
       y1="229.52823"
       x2="147.35265"
       y2="383.81396" />
  </defs>
  <sodipodi:namedview
     id="base"
     bordercolor="#666666"
     inkscape:pageshadow="2"
     inkscape:window-y="0"
     pagecolor="#ffffff"
     inkscape:window-height="750"
     inkscape:window-maximized="1"
     inkscape:zoom="1.979899"
     inkscape:window-x="1440"
     showgrid="false"
     borderopacity="1.0"
     inkscape:current-layer="layer1"
     inkscape:cx="-76.340503"
     inkscape:cy="118.19248"
     inkscape:window-width="1280"
     inkscape:pageopacity="0.0"
     inkscape:document-units="px"
     fit-margin-top="0"
     fit-margin-left="0"
     fit-margin-right="0"
     fit-margin-bottom="0" />
  <g
     id="layer1"
     inkscape:label="Layer 1"
     inkscape:groupmode="layer"
     transform="translate(-406.93598,-444.63271)">
    <g
       style="filter:url(#filter3803)"
       transform="matrix(0.867827,0,0,0.87397258,419.52422,456.79305)"
       id="g3">
      <radialGradient
         r="91.945999"
         cx="66.348"
         cy="21.809"
         gradientUnits="userSpaceOnUse"
         id="XMLID_2_">
        <stop
           offset="0"
           stop-color="#F28888"
           id="stop6" />
        <stop
           offset="1"
           stop-color="#D82A2A"
           id="stop8" />
      </radialGradient>
      <path
         style="fill:url(#radialGradient3165)"
         inkscape:connector-curvature="0"
         d="m 132.99,99.316 c -6.597,-6.595 -13.189,-13.188 -19.785,-19.783 -3.288,-3.288 -6.576,-6.577 -9.864,-9.865 -1.915,-1.915 -0.106,-2.309 1.725,-4.14 8.093,-8.095 16.188,-16.19 24.281,-24.283 2.697,-2.7 5.927,-5.249 6.376,-9.333 0.617,-5.644 -4.11,-9.153 -7.651,-12.693 C 122.299,13.446 110.746,-3.438 101.049,2.576 93.391,7.326 86.929,16.34 80.617,22.652 77.138,26.131 73.66,29.609 70.181,33.086 68.031,35.236 68.354,34.677 66.185,32.51 58.134,24.459 50.081,16.408 42.028,8.357 39.7,6.029 37.183,2.765 33.971,1.665 27.844,-0.43 23.96,4.135 20.145,7.946 14.542,13.548 -1.54,24.544 1.677,33.958 c 1.098,3.213 4.361,5.729 6.688,8.059 l 13.212,13.212 c 3.648,3.648 7.296,7.296 10.945,10.947 2.167,2.167 2.726,1.845 0.576,3.996 -7.969,7.967 -15.936,15.936 -23.905,23.904 -2.152,2.152 -4.979,4.335 -6.608,6.962 -3.749,6.042 0.466,10.843 4.523,14.898 5.48,5.48 15.905,20.748 24.816,19.772 8.071,-0.884 17.021,-14.063 22.218,-19.261 4.016,-4.012 8.029,-8.025 12.043,-12.039 2.167,-2.167 1.845,-2.726 3.994,-0.575 8.245,8.242 16.489,16.485 24.732,24.729 2.883,2.883 5.76,6.67 10.104,7.146 5.642,0.617 9.15,-4.11 12.691,-7.65 5.94,-5.95 24.88,-19.16 15.28,-28.754"
         id="path10" />
      <path
         style="fill:#ef5656"
         inkscape:connector-curvature="0"
         d="M 32.108,5.382 C 34.234,7.512 9.882,29.862 7.021,31.804 2.273,35.027 11.877,21.857 12.801,20.845 14.289,19.217 29.448,2.722 32.108,5.382"
         id="path12" />
      <path
         style="fill:#ef5656"
         inkscape:connector-curvature="0"
         d="m 38.985,73.616 c 2.172,2.18 -28.186,30.286 -31.196,32.637 -1.428,1.116 -3.703,2.102 -2.241,-0.648 2.541,-4.777 6.725,-8.94 10.396,-12.841 1.652,-1.749 20.405,-21.78 23.041,-19.143"
         id="path14" />
      <path
         style="fill:#ef5656"
         inkscape:connector-curvature="0"
         d="m 99.911,73.616 c -2.167,2.172 28.184,30.286 31.193,32.637 1.429,1.116 3.705,2.102 2.243,-0.648 -2.539,-4.777 -6.724,-8.94 -10.394,-12.841 -1.65,-1.749 -20.4,-21.78 -23.039,-19.143"
         id="path16" />
      <path
         style="fill:#ef5656"
         inkscape:connector-curvature="0"
         d="M 32.108,5.382 C 33.949,3.544 68.296,38.657 66.839,40.115 65.281,41.677 27.561,9.945 32.108,5.382"
         id="path18" />
      <path
         style="fill:#ef5656"
         inkscape:connector-curvature="0"
         d="m 105.08,5.382 c -2.129,2.132 22.224,24.48 25.086,26.422 4.746,3.223 -4.855,-9.947 -5.781,-10.959 -1.49,-1.626 -16.66,-18.123 -19.31,-15.463"
         id="path20" />
      <path
         style="fill:#ef5656"
         inkscape:connector-curvature="0"
         d="M 105.08,5.382 C 103.244,3.548 69.14,38.39 70.604,39.855 72.179,41.439 109.62,9.929 105.08,5.382"
         id="path22" />
      <path
         style="fill:#b20d0d"
         inkscape:connector-curvature="0"
         d="m 132.57,31.309 c -1.838,-1.838 -20.787,18.733 -22.4,20.36 -3.009,3.038 -7.01,6.294 -9.028,10.148 -1.559,2.978 5.516,-1.839 5.892,-2.13 3.07,-2.374 29.68,-24.242 25.54,-28.378"
         id="path24" />
      <path
         style="fill:#b20d0d"
         inkscape:connector-curvature="0"
         d="m 68.087,95.791 c -1.589,-1.594 -19.854,17.809 -21.491,19.445 -4.685,4.684 -9.672,9.238 -13.859,14.391 -2.32,2.854 -1.628,4.019 1.6,1.941 3.205,-2.06 37.682,-31.853 33.75,-35.779"
         id="path26" />
      <path
         style="fill:#b20d0d"
         inkscape:connector-curvature="0"
         d="m 6.914,31.309 c 1.829,-1.833 20.79,18.735 22.399,20.36 3.011,3.04 7.008,6.294 9.029,10.148 1.56,2.978 -5.514,-1.839 -5.89,-2.13 C 29.388,57.316 2.769,35.432 6.914,31.309"
         id="path28" />
      <path
         style="fill:#b20d0d"
         inkscape:connector-curvature="0"
         d="m 71.536,95.937 c 1.603,-1.607 19.133,17.082 20.689,18.639 4.686,4.684 9.672,9.24 13.857,14.39 2.317,2.855 1.627,4.018 -1.599,1.942 -3.2,-2.06 -36.93,-31 -32.944,-34.973"
         id="path30" />
      <path
         style="fill:#970f00"
         inkscape:connector-curvature="0"
         d="m 30.881,0.022 c -7.374,0 -14.027,9.615 -18.709,14.297 -5.675,5.674 -16.408,13.272 -10.383,22.412 3.84,5.826 10.373,10.68 15.26,15.567 5.387,5.388 10.777,10.771 16.161,16.163 -8.732,8.721 -17.454,17.452 -26.181,26.179 -4.257,4.257 -8.981,8.757 -6.191,15.486 2.154,5.201 8.574,9.712 12.414,13.552 3.698,3.698 7.337,8.499 11.725,11.435 6.522,4.365 12.054,0.048 16.563,-4.459 8.978,-8.978 17.962,-17.951 26.934,-26.934 8.722,8.732 17.454,17.454 26.181,26.179 4.257,4.255 8.753,8.979 15.485,6.191 5.199,-2.153 9.711,-8.571 13.552,-12.412 3.697,-3.697 8.499,-7.335 11.434,-11.723 4.325,-6.462 0.058,-12.045 -4.458,-16.563 -8.979,-8.978 -17.952,-17.96 -26.935,-26.932 8.722,-8.732 17.454,-17.456 26.182,-26.183 4.242,-4.242 8.927,-8.711 6.212,-15.419 -2.119,-5.23 -8.59,-9.774 -12.435,-13.62 C 119.991,9.539 116.337,4.69 111.924,1.778 105.407,-2.523 99.903,1.765 95.403,6.263 86.425,15.241 77.443,24.214 68.471,33.197 62.344,27.062 56.211,20.937 50.081,14.805 45.36,10.058 38.378,0.003 30.895,0.007 m -5.93,132.16 C 18.246,125.45 -4.762,109.636 5.536,99.338 15.832,89.039 26.126,78.742 36.423,68.447 29.87,61.895 23.317,55.34 16.762,48.787 11.581,43.606 -3.42,33.107 4.84,24.849 11.449,18.241 18.061,11.632 24.671,5.024 c 8.307,-8.303 17.728,5.276 23.09,10.636 6.891,6.891 13.782,13.782 20.673,20.671 0.104,0.104 17.34,-17.238 18.626,-18.522 5.156,-5.156 16.596,-21.437 24.944,-13.079 7.122,5.452 13.205,13.201 19.557,19.548 8.67,8.668 -4.56,17.713 -10.288,23.443 -6.909,6.909 -13.817,13.818 -20.727,20.728 10.312,10.309 22.737,20.149 31.657,31.657 8.243,8.24 -7.113,18.976 -12.248,24.109 -5.53,5.527 -12.562,15.199 -20.584,7.178 -6.651,-6.65 -13.301,-13.302 -19.953,-19.952 -2.148,-2.147 -9.521,-12.34 -12.118,-9.746 -6.862,6.862 -13.724,13.722 -20.585,20.584 -4.957,4.96 -13.974,17.68 -21.749,9.89"
         id="path32" />
    </g>
  </g>
  <metadata
     id="metadata3069">
    <rdf:RDF>
      <cc:Work>
        <dc:format>image/svg+xml</dc:format>
        <dc:type
           rdf:resource="http://purl.org/dc/dcmitype/StillImage" />
        <cc:license
           rdf:resource="http://creativecommons.org/licenses/publicdomain/" />
        <dc:publisher>
          <cc:Agent
             rdf:about="http://openclipart.org/">
            <dc:title>Openclipart</dc:title>
          </cc:Agent>
        </dc:publisher>
        <dc:title />
      </cc:Work>
      <cc:License
         rdf:about="http://creativecommons.org/licenses/publicdomain/">
        <cc:permits
           rdf:resource="http://creativecommons.org/ns#Reproduction" />
        <cc:permits
           rdf:resource="http://creativecommons.org/ns#Distribution" />
        <cc:permits
           rdf:resource="http://creativecommons.org/ns#DerivativeWorks" />
      </cc:License>
    </rdf:RDF>
  </metadata>
</svg>
