<?xml version="1.0" encoding="UTF-8"?>
<svg xmlns:rdf="http://www.w3.org/1999/02/22-rdf-syntax-ns#" xmlns="http://www.w3.org/2000/svg" xmlns:cc="http://web.resource.org/cc/" xmlns:xlink="http://www.w3.org/1999/xlink" xmlns:dc="http://purl.org/dc/elements/1.1/" xmlns:svg="http://www.w3.org/2000/svg" id="svg3207" viewBox="0 0 245 215" version="1.0">
  <defs id="defs3209">
    <linearGradient id="linearGradient6240">
      <stop id="stop6242" stop-color="#fff" offset="0"/>
      <stop id="stop6246" stop-color="#5c5c5c" offset=".5"/>
      <stop id="stop6248" stop-color="#cfcfcf" offset=".75"/>
      <stop id="stop6250" stop-color="#072315" offset=".875"/>
      <stop id="stop6252" stop-color="#fff" offset=".9375"/>
      <stop id="stop6244" stop-color="#4c4c4c" offset="1"/>
    </linearGradient>
    <linearGradient id="linearGradient5214">
      <stop id="stop5216" stop-color="#1a1a1a" offset="0"/>
      <stop id="stop5222" stop-color="#bbb" offset=".5"/>
      <stop id="stop5224" stop-color="#403737" offset=".75"/>
      <stop id="stop5218" stop-color="#9b9b9b" offset="1"/>
    </linearGradient>
    <linearGradient id="linearGradient4229">
      <stop id="stop4231" stop-color="#fff" offset="0"/>
      <stop id="stop4241" stop-color="#a6a1a1" offset=".43077"/>
      <stop id="stop4237" stop-color="#fff" offset=".5"/>
      <stop id="stop4239" stop-color="#959794" offset=".75"/>
      <stop id="stop4233" stop-color="#fff" offset="1"/>
    </linearGradient>
    <radialGradient id="radialGradient5212" xlink:href="#linearGradient4229" gradientUnits="userSpaceOnUse" cy="248.05" cx="122.97" gradientTransform="matrix(-.042850 2.63 -1.8709 -.029249 571.2 -97.377)" r="48.648"/>
    <radialGradient id="radialGradient5220" xlink:href="#linearGradient5214" gradientUnits="userSpaceOnUse" cy="203.25" cx="62.252" gradientTransform="matrix(.35702 1.5233 -2.2278 .52213 525.43 42.129)" r="57.643"/>
    <linearGradient id="linearGradient5245" y2="220.1" gradientUnits="userSpaceOnUse" y1="210.05" x2="238.37" x1="236.34">
      <stop id="stop5233" stop-color="#3c3c3c" offset="0"/>
      <stop id="stop5235" stop-color="#e6e6e6" offset="1"/>
    </linearGradient>
    <linearGradient id="linearGradient5253" y2="440.36" gradientUnits="userSpaceOnUse" y1="328.86" x2="209" x1="234.99">
      <stop id="stop5257" stop-color="#303030" offset="0"/>
      <stop id="stop5259" stop-color="#b3b3b3" offset="1"/>
    </linearGradient>
    <linearGradient id="linearGradient5261" x1="108.61" xlink:href="#linearGradient5214" gradientUnits="userSpaceOnUse" x2="101.64" y1="313" y2="351.45"/>
    <linearGradient id="linearGradient5269" x1="93.545" xlink:href="#linearGradient6240" gradientUnits="userSpaceOnUse" x2="126.52" y1="359.77" y2="339.27"/>
    <linearGradient id="linearGradient6254" x1="90.101" xlink:href="#linearGradient6240" gradientUnits="userSpaceOnUse" x2="159.86" y1="357.21" y2="313.34"/>
    <radialGradient id="radialGradient6262" xlink:href="#linearGradient6240" gradientUnits="userSpaceOnUse" cy="389.65" cx="141.16" gradientTransform="matrix(1.4857 1.056 -1.5647 2.2013 531.15 -619.35)" r="15.943"/>
    <linearGradient id="linearGradient6264" x1="148.06" xlink:href="#linearGradient4229" gradientUnits="userSpaceOnUse" x2="193.67" y1="414.12" y2="353.15"/>
    <radialGradient id="radialGradient6268" xlink:href="#linearGradient4229" gradientUnits="userSpaceOnUse" cy="368.14" cx="156.94" gradientTransform="matrix(3.9266 -.49621 .31536 2.4955 -580.64 -473.58)" r="6.9184"/>
    <radialGradient id="radialGradient6293" gradientUnits="userSpaceOnUse" cy="355.55" cx="121.79" gradientTransform="matrix(.64912 2.8059e-7 -2.0476e-7 .47368 42.732 187.13)" r="8.2937">
      <stop id="stop6289" stop-color="#fff" offset="0"/>
      <stop id="stop6291" stop-color="#fff" stop-opacity="0" offset="1"/>
    </radialGradient>
  </defs>
  <g id="layer1" transform="translate(-70.929 -202.58)">
    <g id="g6295" transform="matrix(.89345 0 0 .89345 11.052 46.599)">
      <path id="path4184" stroke-linejoin="round" stroke="#000" fill="url(#linearGradient5253)" d="m235.03 246c-55.99 0-101.41 29.44-101.41 65.72 0 2.79 0.3 5.52 0.82 8.22-0.54-2.02-0.98-4.12-1.28-6.28l0.59 29.4c-0.07 0.97-0.13 1.96-0.13 2.94 0 1.59 0.11 3.15 0.29 4.72v0.25h0.03c0.92 7.91 4.01 15.42 8.87 22.31-0.86-22.42 6.41-18.34 6.41-18.34l25.37 19.06s4.25 3.17 4.25 7.41c0 3.11-1.71 13.03-2.62 18.09 16.59 7.68 36.88 12.22 58.81 12.22 55.99 0 101.44-29.45 101.44-65.72 0-2.49-0.24-4.96-0.66-7.38l0.19-18.93c-0.36 1.53-0.85 3.2-1.53 5.03 0.69-2.21 1.2-4.47 1.53-6.75v1.72c1.29-5.54 0.77-9.15 0.38-10.75-2.26-34.99-46.8-62.94-101.35-62.94zm0 34.28c46.68 0 86.02 20.49 97.81 48.31-1.7 3.69-4.09 7.86-7.43 12.5-0.69 0.95-1.25 1.82-1.79 2.66-0.01 0.02-0.04 0.04-0.06 0.06-17.37 20.06-50.53 33.63-88.53 33.63-39.43 0-73.6-14.63-90.37-35.94-0.05-0.06-0.08-0.13-0.13-0.19-2.21-3.18-4.92-7.61-7.19-12.93 11.91-27.72 51.13-48.1 97.69-48.1z"/>
      <path id="path4198" d="m126.98 332.79l10.59 17.98s1.05 22.23-11.64 7.41c-15.12-17.64-11.64-21.16-11.64-21.16s-4.24-17.99 12.69-4.23z" fill-rule="evenodd" stroke="#000" stroke-width="1px" fill="url(#linearGradient6254)"/>
      <path id="path4210" d="m129.1 324.32c-0.11 2.6-8.35 11.53-8.47 11.64-2.12 2.12-8.02-5.66-8.46-7.41-0.77-3.07 3.76-9.05 5.29-10.58 3.64-3.64 10.29 5 11.64 6.35z" fill-rule="evenodd" stroke="#000" stroke-width="1px" fill="url(#linearGradient5261)"/>
      <path id="path4188" stroke-linejoin="round" d="m188.57 236.65a57.143 72.857 0 1 1 -114.28 0 57.143 72.857 0 1 1 114.28 0z" transform="translate(-2.8571 14.286)" stroke="#000" fill="url(#radialGradient5220)"/>
      <path id="path4202" d="m142.86 373c-1.06-23.28 6.35-19.05 6.35-19.05l25.39 19.05s4.24 3.17 4.24 7.4c0 4.24-3.18 21.17-3.18 21.17l-13.76-10.58s3.18-10.59-2.11-14.82-11.64 2.12-9.53 5.29c2.12 3.18-7.4-8.46-7.4-8.46z" fill-rule="evenodd" stroke="#000" stroke-width="1px" fill="url(#linearGradient6264)"/>
      <path id="path4194" stroke-linejoin="round" d="m176.72 239.13a48.148 66.138 0 1 1 -96.297 0 48.148 66.138 0 1 1 96.297 0z" transform="matrix(1.0107 0 0 1.0544 -5.0152 -.87726)" stroke="#000" fill="url(#radialGradient5212)"/>
      <path id="path4206" d="m152.38 364.53c5.84-4.47 8.76-3.64 11.64 2.12 2.79 5.57-0.73 7.77-4.23 9.52-5.37 2.69-6.45-2.52-7.41-6.35-0.43-1.71 0-3.52 0-5.29z" fill-rule="evenodd" stroke="#000" stroke-width="1px" fill="url(#radialGradient6268)"/>
      <path id="path4208" d="m128.16 357.12c-1.48-5.91 18.24-1.93 19.99-1.05 6.25 3.12 9.19 3.97 10.58 9.52 1.81 7.22-7.22 2.48-8.47 0-1.81-3.63-9.94-3.17-13.75-3.17-3.92 0-7.15 0.69-8.35-5.3z" fill-rule="evenodd" stroke="#000" stroke-width="1px" fill="url(#radialGradient6262)"/>
      <g id="g5241" stroke-linejoin="round" stroke="#000" transform="translate(-117,43)">
        <path id="path5228" transform="matrix(.60782 0 0 .60465 164.71 61.123)" fill="#e6e6e6" d="m141.8 246.54a11.64 19.577 0 1 1 -23.28 0 11.64 19.577 0 1 1 23.28 0z"/>
        <path id="path4204" stroke-width=".60624" fill="url(#linearGradient5245)" d="m243.74 198.22c-3.9 0-7.09 5.31-7.09 11.84 0 6.54 3.19 11.82 7.09 11.82 1.01 0 1.95-0.34 2.81-0.97-0.21 0.03-0.4 0.06-0.62 0.06-3.66 0-6.63-4.95-6.63-11.06 0-6.12 2.97-11.1 6.63-11.1-0.69-0.38-1.42-0.59-2.19-0.59z"/>
      </g>
      <path id="path4200" d="m121.69 335.96l10.59 17.99s1.05 22.22-11.65 7.41c-15.11-17.64-11.64-21.17-11.64-21.17s-4.23-17.99 12.7-4.23z" fill-rule="evenodd" stroke="#000" stroke-width="1px" fill="url(#linearGradient5269)"/>
      <path id="path6283" transform="matrix(.77193 0 0 1.0175 33.159 -6.9652)" fill="url(#radialGradient6293)" d="m130.08 355.55a8.2937 8.2937 0 1 1 -16.59 0 8.2937 8.2937 0 1 1 16.59 0z"/>
    </g>
  </g>
  <metadata>
    <rdf:RDF>
      <cc:Work>
        <dc:format>image/svg+xml</dc:format>
        <dc:type rdf:resource="http://purl.org/dc/dcmitype/StillImage"/>
        <cc:license rdf:resource="http://creativecommons.org/licenses/publicdomain/"/>
        <dc:publisher>
          <cc:Agent rdf:about="http://openclipart.org/">
            <dc:title>Openclipart</dc:title>
          </cc:Agent>
        </dc:publisher>
        <dc:title>head mirror</dc:title>
        <dc:date>2007-07-29T15:13:44</dc:date>
        <dc:description>A head mirror for ENT doctor\nENT??\nbrand: Nagashima</dc:description>
        <dc:source>http://openclipart.org/detail/4597/head-mirror-by-lijenhsin</dc:source>
        <dc:creator>
          <cc:Agent>
            <dc:title>lijenhsin</dc:title>
          </cc:Agent>
        </dc:creator>
        <dc:subject>
          <rdf:Bag>
            <rdf:li>clip art</rdf:li>
            <rdf:li>clipart</rdf:li>
            <rdf:li>ent</rdf:li>
            <rdf:li>image</rdf:li>
            <rdf:li>media</rdf:li>
            <rdf:li>mirror</rdf:li>
            <rdf:li>public domain</rdf:li>
            <rdf:li>svg</rdf:li>
          </rdf:Bag>
        </dc:subject>
      </cc:Work>
      <cc:License rdf:about="http://creativecommons.org/licenses/publicdomain/">
        <cc:permits rdf:resource="http://creativecommons.org/ns#Reproduction"/>
        <cc:permits rdf:resource="http://creativecommons.org/ns#Distribution"/>
        <cc:permits rdf:resource="http://creativecommons.org/ns#DerivativeWorks"/>
      </cc:License>
    </rdf:RDF>
  </metadata>
</svg>