<?xml version="1.0" encoding="UTF-8" standalone="no"?>
<!-- Created with Inkscape (http://www.inkscape.org/) -->

<svg
   xmlns:dc="http://purl.org/dc/elements/1.1/"
   xmlns:cc="http://creativecommons.org/ns#"
   xmlns:rdf="http://www.w3.org/1999/02/22-rdf-syntax-ns#"
   xmlns:svg="http://www.w3.org/2000/svg"
   xmlns="http://www.w3.org/2000/svg"
   xmlns:xlink="http://www.w3.org/1999/xlink"
   xmlns:sodipodi="http://sodipodi.sourceforge.net/DTD/sodipodi-0.dtd"
   xmlns:inkscape="http://www.inkscape.org/namespaces/inkscape"
   id="svg2965"
   sodipodi:docname="email.svg"
   viewBox="0 0 144.00958 143.99036"
   version="1.1"
   inkscape:version="0.48.3.1 r9886"
   width="100%"
   height="100%"
   inkscape:export-filename="/home/koudri/Images/android/healthrecord/email.png"
   inkscape:export-xdpi="90"
   inkscape:export-ydpi="90">
  <defs
     id="defs2967">
    <linearGradient
       id="linearGradient5480"
       y2="-148.13"
       gradientUnits="userSpaceOnUse"
       x2="387.75"
       y1="-298.54001"
       x1="379.92001">
      <stop
         id="stop3954"
         style="stop-color:#2c2d28;stop-opacity:1;"
         offset="0" />
      <stop
         id="stop3956"
         style="stop-color:#0146a8;stop-opacity:0"
         offset="1" />
    </linearGradient>
    <linearGradient
       id="linearGradient3383"
       y2="-147.97"
       gradientUnits="userSpaceOnUse"
       y1="-310.04999"
       gradientTransform="matrix(0.93571,0,0,0.97143,689.99,669.67)"
       x2="387.75"
       x1="381.89001"
       inkscape:collect="always">
      <stop
         id="stop3919-6"
         style="stop-color:#edf4fd;stop-opacity:.52846"
         offset="0" />
      <stop
         id="stop3921-27"
         style="stop-color:#175bb3;stop-opacity:0"
         offset="1" />
    </linearGradient>
    <style
       id="style6"
       type="text/css">.fil2 {fill:#FEFEFE}
    .fil1 {fill:#27576D}
    .fil0 {fill:#7AA3B0}
    .fil3 {fill:#27576D;fill-rule:nonzero}</style>
    <style
       id="style5339"
       type="text/css">.fil0 {fill:#1B1C1F}
    .fil1 {fill:#1B1C1F;fill-rule:nonzero}</style>
    <linearGradient
       y2="-147.97"
       x2="387.75"
       y1="-310.04999"
       x1="381.89001"
       gradientTransform="matrix(0.61431866,0,0,0.62983389,205.42267,608.04169)"
       gradientUnits="userSpaceOnUse"
       id="linearGradient3160"
       xlink:href="#linearGradient3913"
       inkscape:collect="always" />
    <linearGradient
       inkscape:collect="always"
       x1="381.89001"
       x2="387.75"
       gradientTransform="matrix(0.93571,0,0,0.97143,738.55,1229)"
       y1="-310.04999"
       gradientUnits="userSpaceOnUse"
       y2="-147.97"
       id="linearGradient3913">
      <stop
         offset="0"
         style="stop-color:#edf4fd;stop-opacity:.52846"
         id="stop3919-13" />
      <stop
         offset="1"
         style="stop-color:#175bb3;stop-opacity:0"
         id="stop3921-7" />
    </linearGradient>
    <linearGradient
       inkscape:collect="always"
       x1="379.92001"
       y1="-298.54001"
       x2="387.75"
       gradientUnits="userSpaceOnUse"
       y2="-148.13"
       id="linearGradient5440">
      <stop
         offset="0"
         style="stop-color:#0146a8"
         id="stop3954-1" />
      <stop
         offset="1"
         style="stop-color:#0146a8;stop-opacity:0"
         id="stop3956-1" />
    </linearGradient>
    <linearGradient
       inkscape:collect="always"
       xlink:href="#linearGradient5440"
       id="linearGradient3927"
       gradientUnits="userSpaceOnUse"
       x1="379.92001"
       y1="-298.54001"
       x2="387.75"
       y2="-148.13" />
    <linearGradient
       inkscape:collect="always"
       xlink:href="#linearGradient3913"
       id="linearGradient3929"
       gradientUnits="userSpaceOnUse"
       gradientTransform="matrix(0.61431866,0,0,0.62983389,205.42267,608.04169)"
       x1="381.89001"
       y1="-310.04999"
       x2="387.75"
       y2="-147.97" />
    <linearGradient
       inkscape:collect="always"
       xlink:href="#linearGradient3913"
       id="linearGradient3944"
       gradientUnits="userSpaceOnUse"
       gradientTransform="matrix(0.61431866,0,0,0.62983389,3.57143,700.96977)"
       x1="381.89001"
       y1="-310.04999"
       x2="387.75"
       y2="-147.97" />
    <linearGradient
       x1="379.92001"
       y1="-298.54001"
       x2="387.75"
       gradientUnits="userSpaceOnUse"
       y2="-148.13"
       id="linearGradient5480-6">
      <stop
         offset="0"
         style="stop-color:#2c2d28;stop-opacity:1;"
         id="stop3954-17" />
      <stop
         offset="1"
         style="stop-color:#0146a8;stop-opacity:0"
         id="stop3956-4" />
    </linearGradient>
    <linearGradient
       x1="379.92001"
       y1="-298.54001"
       x2="387.75"
       gradientUnits="userSpaceOnUse"
       y2="-148.13"
       id="linearGradient5480-8">
      <stop
         offset="0"
         style="stop-color:#2c2d28;stop-opacity:1;"
         id="stop3954-8" />
      <stop
         offset="1"
         style="stop-color:#0146a8;stop-opacity:0"
         id="stop3956-7" />
    </linearGradient>
    <linearGradient
       inkscape:collect="always"
       xlink:href="#linearGradient5480"
       id="linearGradient4195"
       gradientUnits="userSpaceOnUse"
       gradientTransform="translate(327.35208,223.1963)"
       x1="148.34306"
       y1="229.52823"
       x2="147.35265"
       y2="383.81396" />
    <linearGradient
       inkscape:collect="always"
       xlink:href="#linearGradient3383"
       id="linearGradient4197"
       gradientUnits="userSpaceOnUse"
       gradientTransform="matrix(0.97436691,0,0,1.2046199,123.38905,-290.35486)"
       x1="361.67639"
       y1="614.63672"
       x2="362.40973"
       y2="713.20813" />
    <linearGradient
       y2="-148.13"
       x2="387.75"
       y1="-298.54001"
       x1="379.92001"
       gradientUnits="userSpaceOnUse"
       id="linearGradient3769"
       xlink:href="#linearGradient5480-2"
       inkscape:collect="always" />
    <linearGradient
       y2="-147.97"
       x2="387.75"
       y1="-310.04999"
       x1="381.89001"
       gradientTransform="matrix(0.61431866,0,0,0.62983389,234.76742,652.92135)"
       gradientUnits="userSpaceOnUse"
       id="linearGradient2995"
       xlink:href="#linearGradient3383-5"
       inkscape:collect="always" />
    <linearGradient
       inkscape:collect="always"
       x1="381.89001"
       x2="387.75"
       gradientTransform="matrix(0.93571,0,0,0.97143,689.99,669.67)"
       y1="-310.04999"
       gradientUnits="userSpaceOnUse"
       y2="-147.97"
       id="linearGradient3383-5">
      <stop
         offset="0"
         style="stop-color:#edf4fd;stop-opacity:.52846"
         id="stop3919-6-6" />
      <stop
         offset="1"
         style="stop-color:#175bb3;stop-opacity:0"
         id="stop3921-27-7" />
    </linearGradient>
    <linearGradient
       x1="379.92001"
       y1="-298.54001"
       x2="387.75"
       gradientUnits="userSpaceOnUse"
       y2="-148.13"
       id="linearGradient5480-2">
      <stop
         offset="0"
         style="stop-color:#2c2d28;stop-opacity:1;"
         id="stop3954-5" />
      <stop
         offset="1"
         style="stop-color:#0146a8;stop-opacity:0"
         id="stop3956-16" />
    </linearGradient>
    <linearGradient
       inkscape:collect="always"
       xlink:href="#linearGradient3383-5"
       id="linearGradient4285"
       gradientUnits="userSpaceOnUse"
       gradientTransform="matrix(0.61431866,0,0,0.62983389,-94.41299,561.58034)"
       x1="381.89001"
       y1="-310.04999"
       x2="387.75"
       y2="-147.97" />
    <linearGradient
       inkscape:collect="always"
       xlink:href="#linearGradient3383"
       id="linearGradient3170"
       gradientUnits="userSpaceOnUse"
       gradientTransform="matrix(0.97436691,0,0,1.2046199,-170.29878,-289.10214)"
       x1="361.67639"
       y1="614.63672"
       x2="362.40973"
       y2="713.20813" />
    <linearGradient
       inkscape:collect="always"
       xlink:href="#linearGradient5480"
       id="linearGradient3173"
       gradientUnits="userSpaceOnUse"
       gradientTransform="translate(104.37493,112.32209)"
       x1="148.34306"
       y1="229.52823"
       x2="147.35265"
       y2="383.81396" />
  </defs>
  <sodipodi:namedview
     id="base"
     bordercolor="#666666"
     inkscape:pageshadow="2"
     inkscape:window-y="0"
     pagecolor="#ffffff"
     inkscape:window-height="750"
     inkscape:window-maximized="1"
     inkscape:zoom="1.979899"
     inkscape:window-x="1920"
     showgrid="false"
     borderopacity="1.0"
     inkscape:current-layer="layer1"
     inkscape:cx="-105.22721"
     inkscape:cy="118.19248"
     inkscape:window-width="1280"
     inkscape:pageopacity="0.0"
     inkscape:document-units="px"
     fit-margin-top="0"
     fit-margin-left="0"
     fit-margin-right="0"
     fit-margin-bottom="0" />
  <g
     id="layer1"
     inkscape:label="Layer 1"
     inkscape:groupmode="layer"
     transform="translate(-406.93598,-444.63271)">
    <rect
       style="fill:#2c2d28;fill-opacity:1;stroke:#000000;stroke-width:1.96877348;stroke-miterlimit:4;stroke-opacity:1;stroke-dasharray:none;stroke-dashoffset:0"
       id="rect3031"
       width="142.04082"
       height="142.02159"
       x="407.92038"
       y="445.6171"
       rx="30.103729"
       ry="26.830206" />
    <g
       transform="matrix(0.68738353,0,0,0.61922676,-211.0047,213.81423)"
       style="fill:#e4e355;fill-opacity:1"
       id="text5197">
      <path
         inkscape:connector-curvature="0"
         d="m 1018.6,460.47 1.7055,-7.5724 h 18.01 l -10.37,48.914 c -0.6368,3.0927 -0.9552,5.1393 -0.9551,6.1398 -10e-5,1.0461 0.25,1.8647 0.7504,2.4559 0.5457,0.59125 1.1824,0.88688 1.9102,0.88686 2.4558,2e-5 5.6167,-1.5918 9.4826,-4.7754 3.9112,-3.2291 7.2995,-7.5952 10.165,-13.098 2.9106,-5.5485 4.366,-11.597 4.3661,-18.147 -10e-5,-5.4576 -1.0461,-10.597 -3.1381,-15.418 -2.0467,-4.8208 -5.0257,-9.005 -8.9369,-12.553 -3.9114,-3.5474 -8.755,-6.3217 -14.531,-8.3229 -5.7306,-2.001 -12.234,-3.0016 -19.511,-3.0017 -7.4133,9e-5 -14.213,0.97791 -20.398,2.9335 -6.1854,1.9102 -11.62,4.6845 -16.305,8.3229 -4.6845,3.593 -8.5958,8.0501 -11.734,13.371 -2.7743,4.639 -4.8891,9.7783 -6.3445,15.418 -1.4554,5.6396 -2.1831,11.393 -2.183,17.26 -2e-5,7.8226 1.5463,14.986 4.639,21.489 3.1381,6.4582 7.6634,11.87 13.576,16.236 5.9579,4.4116 13.144,7.527 21.558,9.3462 8.4138,1.8647 17.919,2.2513 28.516,1.1598 8.4137,-1.0006 15.531,-2.9108 21.353,-5.7305 5.8669,-2.8198 10.824,-6.7766 14.872,-11.87 h 14.531 c -2.3651,4.8664 -5.4578,9.2097 -9.278,13.03 -3.775,3.8203 -8.2093,7.0267 -13.303,9.6191 -5.0939,2.6378 -10.802,4.639 -17.123,6.0034 -6.3219,1.3644 -13.212,2.0466 -20.671,2.0466 -11.188,-3e-5 -21.262,-1.4781 -30.222,-4.4343 -8.9596,-2.9108 -16.509,-7.1404 -22.649,-12.689 -6.0944,-5.5031 -10.711,-12.075 -13.849,-19.716 -3.1381,-7.6861 -4.7072,-16.168 -4.7072,-25.446 -10e-6,-9.6872 1.6145,-18.738 4.8436,-27.152 3.2291,-8.4138 7.868,-15.713 13.917,-21.899 6.0943,-6.2307 13.508,-11.097 22.24,-14.599 8.7776,-3.5019 18.442,-5.2529 28.994,-5.253 8.6412,10e-5 16.555,1.2736 23.741,3.8203 7.2312,2.5015 13.416,6.1172 18.556,10.847 5.1391,4.73 9.0504,10.347 11.734,16.85 2.7287,6.4582 4.0931,13.599 4.0933,21.421 -2e-4,6.0944 -1.0917,12.075 -3.2746,17.942 -2.1832,5.8215 -5.3213,11.074 -9.4144,15.759 -4.0479,4.639 -8.8233,8.3229 -14.326,11.052 -5.5032,2.6833 -11.438,4.025 -17.805,4.025 -3.684,0 -6.5493,-0.61399 -8.5958,-1.842 -2.0467,-1.2734 -3.4111,-3.2746 -4.0932,-6.0034 -3.9569,3.9113 -8.5049,6.39 -13.644,7.436 -5.1393,1.0006 -10.119,0.52303 -14.94,-1.4326 -4.8209,-2.0011 -8.7322,-5.3439 -11.734,-10.028 -2.9562,-4.6844 -4.4343,-10.46 -4.4343,-17.328 -3e-5,-7.1404 1.5236,-14.167 4.5708,-21.08 3.0926,-6.9129 7.4587,-12.575 13.098,-16.987 5.685,-4.4115 12.098,-6.6173 19.238,-6.6174 8.1863,7e-5 14.19,3.07 18.01,9.2097 m -37.316,35.338 c -5e-5,5.4576 1.137,9.6418 3.411,12.553 2.274,2.9108 5.2529,4.3661 8.9368,4.3661 4.2751,10e-6 8.0272,-1.7055 11.256,-5.1165 3.2745,-3.411 5.7532,-7.7089 7.436,-12.894 1.6827,-5.2302 2.5241,-10.278 2.5242,-15.145 -10e-5,-2.4104 -0.2957,-4.5707 -0.8869,-6.4809 -0.5458,-1.9556 -1.3872,-3.6611 -2.5241,-5.1165 -1.0916,-1.4553 -2.4333,-2.5468 -4.025,-3.2746 -1.5464,-0.7731 -3.3201,-1.1597 -5.3212,-1.1597 -4.0023,6e-5 -7.618,1.5691 -10.847,4.7072 -3.1837,3.0927 -5.6396,7.1404 -7.3678,12.143 -1.7283,4.9574 -2.5924,10.097 -2.5924,15.418"
         id="path5202"
         style="fill:#e4e355;fill-opacity:1" />
    </g>
  </g>
  <metadata
     id="metadata3069">
    <rdf:RDF>
      <cc:Work>
        <dc:format>image/svg+xml</dc:format>
        <dc:type
           rdf:resource="http://purl.org/dc/dcmitype/StillImage" />
        <cc:license
           rdf:resource="http://creativecommons.org/licenses/publicdomain/" />
        <dc:publisher>
          <cc:Agent
             rdf:about="http://openclipart.org/">
            <dc:title>Openclipart</dc:title>
          </cc:Agent>
        </dc:publisher>
        <dc:title></dc:title>
      </cc:Work>
      <cc:License
         rdf:about="http://creativecommons.org/licenses/publicdomain/">
        <cc:permits
           rdf:resource="http://creativecommons.org/ns#Reproduction" />
        <cc:permits
           rdf:resource="http://creativecommons.org/ns#Distribution" />
        <cc:permits
           rdf:resource="http://creativecommons.org/ns#DerivativeWorks" />
      </cc:License>
    </rdf:RDF>
  </metadata>
</svg>
