<?xml version="1.0" encoding="UTF-8" standalone="no"?>
<svg
   xmlns:dc="http://purl.org/dc/elements/1.1/"
   xmlns:cc="http://creativecommons.org/ns#"
   xmlns:rdf="http://www.w3.org/1999/02/22-rdf-syntax-ns#"
   xmlns:svg="http://www.w3.org/2000/svg"
   xmlns="http://www.w3.org/2000/svg"
   xmlns:xlink="http://www.w3.org/1999/xlink"
   xmlns:sodipodi="http://sodipodi.sourceforge.net/DTD/sodipodi-0.dtd"
   xmlns:inkscape="http://www.inkscape.org/namespaces/inkscape"
   id="Layer_1"
   space="preserve"
   sodipodi:version="0.32"
   viewBox="0 0 174.04977 174.04047"
   version="1.1"
   sodipodi:docname="endIllness.svg"
   inkscape:version="0.48.3.1 r9886"
   width="100%"
   height="100%"
   inkscape:export-filename="/home/koudri/Images/android/healthrecord/endIllness.png"
   inkscape:export-xdpi="74.466705"
   inkscape:export-ydpi="74.466705">
  <defs
     id="defs22">
    <filter
       id="filter3803"
       inkscape:label="Drop Shadow"
       color-interpolation-filters="sRGB">
      <feFlood
         id="feFlood3805"
         flood-opacity="0.5"
         flood-color="rgb(0,0,0)"
         result="flood" />
      <feComposite
         id="feComposite3807"
         in2="SourceGraphic"
         in="flood"
         operator="in"
         result="composite1" />
      <feGaussianBlur
         id="feGaussianBlur3809"
         stdDeviation="2"
         result="blur" />
      <feOffset
         id="feOffset3811"
         dx="4"
         dy="4"
         result="offset" />
      <feComposite
         id="feComposite3813"
         in2="offset"
         in="SourceGraphic"
         operator="over"
         result="composite2" />
    </filter>
    <radialGradient
       inkscape:collect="always"
       xlink:href="#XMLID_2_"
       id="radialGradient3815"
       gradientUnits="userSpaceOnUse"
       cx="66.348"
       cy="21.809"
       r="91.945999" />
    <radialGradient
       inkscape:collect="always"
       xlink:href="#XMLID_2_"
       id="radialGradient3023"
       gradientUnits="userSpaceOnUse"
       cx="66.348"
       cy="21.809"
       r="91.945999" />
    <radialGradient
       r="91.945999"
       cx="66.348"
       cy="21.809"
       gradientUnits="userSpaceOnUse"
       id="XMLID_2_">
      <stop
         offset="0"
         stop-color="#F28888"
         id="stop6"
         style="stop-color:#2bb888;stop-opacity:1;" />
      <stop
         offset="1"
         stop-color="#D82A2A"
         id="stop8"
         style="stop-color:#d8dc2a;stop-opacity:1;" />
    </radialGradient>
    <radialGradient
       inkscape:collect="always"
       xlink:href="#XMLID_2_"
       id="radialGradient3040"
       gradientUnits="userSpaceOnUse"
       cx="66.348"
       cy="21.809"
       r="91.945999"
       gradientTransform="translate(18.558975,18.557167)" />
  </defs>
  <sodipodi:namedview
     id="base"
     bordercolor="#666666"
     borderopacity="1.0"
     pagecolor="#ffffff"
     showgrid="false"
     inkscape:zoom="1.7235461"
     inkscape:cx="-199.20648"
     inkscape:cy="95.296903"
     inkscape:window-width="1920"
     inkscape:window-height="1175"
     inkscape:window-x="0"
     inkscape:window-y="0"
     inkscape:window-maximized="1"
     inkscape:current-layer="Layer_1"
     fit-margin-top="0"
     fit-margin-left="0"
     fit-margin-right="0"
     fit-margin-bottom="0" />
  <rect
     style="fill:#2c2d28;fill-opacity:1;stroke:#000000;stroke-width:3;stroke-miterlimit:4;stroke-opacity:1;stroke-dasharray:none;filter:url(#filter3803)"
     id="rect2997"
     width="142.04147"
     height="142.03372"
     x="16.004147"
     y="16.003372"
     ry="22.246246" />
  <path
     style="fill:url(#radialGradient3040);filter:url(#filter3803)"
     inkscape:connector-curvature="0"
     d="m 151.54898,117.87317 c -6.59701,-6.595 -13.189,-13.188 -19.785,-19.783003 -3.28801,-3.288 -6.576,-6.577 -9.864,-9.865 -1.915,-1.915 -0.106,-2.309 1.725,-4.14 8.09299,-8.095 16.18799,-16.19 24.28099,-24.283 2.69701,-2.7 5.927,-5.249 6.37601,-9.333 0.61699,-5.644 -4.11001,-9.153 -7.65101,-12.693 -5.773,-5.773 -17.326,-22.657 -27.02299,-16.643 -7.658,4.75 -14.12,13.764 -20.432005,20.076 -3.479,3.479 -6.957,6.957 -10.436,10.434 -2.15,2.15 -1.827,1.591 -3.996,-0.576 -8.051,-8.051 -16.104,-16.102 -24.157,-24.153 -2.328,-2.328 -4.845,-5.592 -8.057,-6.692 -6.127,-2.095 -10.011,2.47 -13.826,6.281 -5.603,5.602 -21.685,16.598 -18.468,26.012 1.098,3.213 4.361,5.729 6.688,8.059 l 13.212,13.212 c 3.648,3.648 7.296,7.296 10.945,10.947 2.167,2.167 2.726,1.845 0.576,3.996 -7.969,7.967 -15.936,15.936003 -23.905,23.904003 -2.152,2.152 -4.979,4.335 -6.608,6.962 -3.749,6.042 0.466,10.843 4.523,14.898 5.48,5.48 15.905,20.748 24.816,19.772 8.071,-0.884 17.021,-14.063 22.218,-19.261 4.016,-4.012 8.029,-8.025 12.043,-12.039 2.167,-2.167 1.845,-2.726 3.994,-0.575 8.245,8.242 16.489005,16.485 24.732005,24.729 2.883,2.883 5.76,6.67 10.104,7.146 5.64199,0.617 9.14999,-4.11 12.69099,-7.65 5.94,-5.95 24.88001,-19.16 15.28,-28.754"
     id="path10" />
  <path
     style="fill:#b2e10d;filter:url(#filter3803);fill-opacity:1"
     inkscape:connector-curvature="0"
     d="m 50.666975,23.939167 c 2.126,2.13 -22.226,24.48 -25.087,26.422 -4.748,3.223 4.856,-9.947 5.78,-10.959 1.488,-1.628 16.647,-18.123 19.307,-15.463"
     id="path12" />
  <path
     style="fill:#b2e10d;filter:url(#filter3803);fill-opacity:1"
     inkscape:connector-curvature="0"
     d="m 57.543975,92.173167 c 2.172,2.18 -28.186,30.286003 -31.196,32.637003 -1.428,1.116 -3.703,2.102 -2.241,-0.648 2.541,-4.777 6.725,-8.94 10.396,-12.841 1.652,-1.749 20.405,-21.780003 23.041,-19.143003"
     id="path14" />
  <path
     style="fill:#b2e10d;filter:url(#filter3803);fill-opacity:1"
     inkscape:connector-curvature="0"
     d="m 118.46998,92.173167 c -2.167,2.172 28.18399,30.286003 31.193,32.637003 1.429,1.116 3.705,2.102 2.24299,-0.648 -2.53899,-4.777 -6.724,-8.94 -10.394,-12.841 -1.65,-1.749 -20.39999,-21.780003 -23.03899,-19.143003"
     id="path16" />
  <path
     style="fill:#b2e10d;filter:url(#filter3803);fill-opacity:1"
     inkscape:connector-curvature="0"
     d="m 50.666975,23.939167 c 1.841,-1.838 36.188,33.275 34.731,34.733 -1.558,1.562 -39.278,-30.17 -34.731,-34.733"
     id="path18" />
  <path
     style="fill:#b2e10d;filter:url(#filter3803);fill-opacity:1"
     inkscape:connector-curvature="0"
     d="m 123.63898,23.939167 c -2.12901,2.132 22.22399,24.48 25.08599,26.422 4.746,3.223 -4.855,-9.947 -5.781,-10.959 -1.49,-1.626 -16.66,-18.123 -19.31,-15.463"
     id="path20" />
  <path
     style="fill:#b2e10d;filter:url(#filter3803);fill-opacity:1"
     inkscape:connector-curvature="0"
     d="m 123.63898,23.939167 c -1.836,-1.834 -35.940005,33.008 -34.476005,34.473 1.575,1.584 39.015995,-29.926 34.476005,-34.473"
     id="path22" />
  <path
     style="fill:#b2e10d;filter:url(#filter3803);fill-opacity:1"
     inkscape:connector-curvature="0"
     d="m 151.12897,49.866167 c -1.838,-1.838 -20.787,18.733 -22.4,20.36 -3.009,3.038 -7.01,6.294 -9.028,10.148 -1.559,2.978 5.516,-1.839 5.892,-2.13 3.07,-2.374 29.68,-24.242 25.54,-28.378"
     id="path24" />
  <path
     style="fill:#b2e10d;filter:url(#filter3803);fill-opacity:1"
     inkscape:connector-curvature="0"
     d="m 86.645975,114.34817 c -1.589,-1.594 -19.854,17.809 -21.491,19.445 -4.685,4.684 -9.672,9.238 -13.859,14.391 -2.32,2.854 -1.628,4.019 1.6,1.941 3.205,-2.06 37.682,-31.853 33.75,-35.779"
     id="path26" />
  <path
     style="fill:#b2e10d;filter:url(#filter3803);fill-opacity:1"
     inkscape:connector-curvature="0"
     d="m 25.472975,49.866167 c 1.829,-1.833 20.79,18.735 22.399,20.36 3.011,3.04 7.008,6.294 9.029,10.148 1.56,2.978 -5.514,-1.839 -5.89,-2.13 -3.064,-2.371 -29.683,-24.255 -25.538,-28.378"
     id="path28" />
  <path
     style="fill:#b2e10d;filter:url(#filter3803);fill-opacity:1"
     inkscape:connector-curvature="0"
     d="m 90.094975,114.49417 c 1.603,-1.607 19.133005,17.082 20.688995,18.639 4.68601,4.684 9.672,9.24 13.857,14.39 2.31701,2.855 1.627,4.018 -1.599,1.942 -3.2,-2.06 -36.929995,-31 -32.943995,-34.973"
     id="path30" />
  <path
     style="fill:#b2e10d;filter:url(#filter3803);fill-opacity:1"
     inkscape:connector-curvature="0"
     d="m 49.439975,18.579167 c -7.374,0 -14.027,9.615 -18.709,14.297 -5.675,5.674 -16.408,13.272 -10.383,22.412 3.84,5.826 10.373,10.68 15.26,15.567 5.387,5.388 10.777,10.771 16.161,16.163 -8.732,8.721 -17.454,17.452003 -26.181,26.179003 -4.257,4.257 -8.981,8.757 -6.191,15.486 2.154,5.201 8.574,9.712 12.414,13.552 3.698,3.698 7.337,8.499 11.725,11.435 6.522,4.365 12.054,0.048 16.563,-4.459 8.978,-8.978 17.962,-17.951 26.934,-26.934 8.722,8.732 17.454005,17.454 26.180995,26.179 4.257,4.255 8.753,8.979 15.485,6.191 5.199,-2.153 9.711,-8.571 13.552,-12.412 3.697,-3.697 8.499,-7.335 11.434,-11.723 4.325,-6.462 0.058,-12.045 -4.458,-16.563 -8.979,-8.978 -17.952,-17.960003 -26.935,-26.932003 8.722,-8.732 17.454,-17.456 26.182,-26.183 4.242,-4.242 8.927,-8.711 6.212,-15.419 -2.119,-5.23 -8.59,-9.774 -12.435,-13.62 -3.701,-3.699 -7.355,-8.548 -11.768,-11.46 -6.51699,-4.301 -12.02099,-0.013 -16.52099,4.485 -8.978,8.978 -17.960005,17.951 -26.932005,26.934 -6.127,-6.135 -12.26,-12.26 -18.39,-18.392 -4.721,-4.747 -11.703,-14.802 -19.186,-14.798 m -5.93,132.160003 c -6.719,-6.717 -29.727,-22.531 -19.429,-32.829 10.296,-10.299 20.59,-20.596003 30.887,-30.891003 -6.553,-6.552 -13.106,-13.107 -19.661,-19.66 -5.181,-5.181 -20.182,-15.68 -11.922,-23.938 6.609,-6.608 13.221,-13.217 19.831,-19.825 8.307,-8.303 17.728,5.276 23.09,10.636 6.891,6.891 13.782,13.782 20.673,20.671 0.104,0.104 17.340005,-17.238 18.626005,-18.522 5.156,-5.156 16.596,-21.437 24.94399,-13.079 7.122,5.452 13.205,13.201 19.557,19.548 8.67,8.668 -4.56,17.713 -10.288,23.443 -6.909,6.909 -13.81699,13.818 -20.72699,20.728 10.31199,10.309 22.73699,20.149003 31.65699,31.657003 8.243,8.24 -7.113,18.976 -12.248,24.109 -5.53,5.527 -12.56199,15.199 -20.58399,7.178 -6.651,-6.65 -13.30101,-13.302 -19.953005,-19.952 -2.148,-2.147 -9.521,-12.34 -12.118,-9.746 -6.862,6.862 -13.724,13.722 -20.585,20.584 -4.957,4.96 -13.974,17.68 -21.749,9.89"
     id="path32" />
  <metadata
     id="metadata20">
    <rdf:RDF>
      <cc:Work>
        <dc:format>image/svg+xml</dc:format>
        <dc:type
           rdf:resource="http://purl.org/dc/dcmitype/StillImage" />
        <cc:license
           rdf:resource="http://creativecommons.org/licenses/publicdomain/" />
        <dc:publisher>
          <cc:Agent
             rdf:about="http://openclipart.org/">
            <dc:title>Openclipart</dc:title>
          </cc:Agent>
        </dc:publisher>
        <dc:title>Architetto -- tasto 8</dc:title>
        <dc:date>2010-03-28T09:28:26</dc:date>
        <dc:description>Drawing by Francesco 'Architetto' Rollandin. From OCAL 0.18 release.</dc:description>
        <dc:source>http://openclipart.org/detail/34729/architetto----tasto-8-by-anonymous</dc:source>
        <dc:creator>
          <cc:Agent>
            <dc:title>Anonymous</dc:title>
          </cc:Agent>
        </dc:creator>
        <dc:subject>
          <rdf:Bag>
            <rdf:li>button</rdf:li>
            <rdf:li>cancel</rdf:li>
            <rdf:li>clip art</rdf:li>
            <rdf:li>clipart</rdf:li>
            <rdf:li>cross</rdf:li>
            <rdf:li>delete</rdf:li>
            <rdf:li>icon</rdf:li>
            <rdf:li>multiply</rdf:li>
            <rdf:li>red</rdf:li>
            <rdf:li>remove</rdf:li>
            <rdf:li>sign</rdf:li>
            <rdf:li>symbol</rdf:li>
          </rdf:Bag>
        </dc:subject>
      </cc:Work>
      <cc:License
         rdf:about="http://creativecommons.org/licenses/publicdomain/">
        <cc:permits
           rdf:resource="http://creativecommons.org/ns#Reproduction" />
        <cc:permits
           rdf:resource="http://creativecommons.org/ns#Distribution" />
        <cc:permits
           rdf:resource="http://creativecommons.org/ns#DerivativeWorks" />
      </cc:License>
    </rdf:RDF>
  </metadata>
</svg>
