<?xml version="1.0" encoding="UTF-8"?>
<svg xmlns:rdf="http://www.w3.org/1999/02/22-rdf-syntax-ns#" xmlns="http://www.w3.org/2000/svg" xmlns:cc="http://creativecommons.org/ns#" xmlns:dc="http://purl.org/dc/elements/1.1/" xmlns:svg="http://www.w3.org/2000/svg" id="svg2" viewBox="0 0 128 128" version="1.0">
  <g id="layer1" stroke-linejoin="round" fill-rule="evenodd" stroke="#000" stroke-linecap="round" stroke-width="4" fill="#f00">
    <path id="path2933" d="m65.367 8.0875c-30.451 0-55.25 24.83-55.25 55.282 0 30.45 24.799 55.25 55.25 55.25s55.283-24.8 55.283-55.251-24.832-55.282-55.283-55.282zm0 9.9995c25.041 0 45.283 20.241 45.283 45.282 0 25.04-20.242 45.251-45.283 45.251s-45.25-20.211-45.25-45.251c0-25.041 20.209-45.282 45.25-45.282z"/>
    <path id="path3004" d="m57.33 99.544c-1.825-0.841-1.783-0.502-1.783-14.537v-12.392h-12.5c-13.82 0-13.504 0.034-14.245-1.526-0.336-0.709-0.392-1.861-0.392-8.02 0-4.382 0.098-7.465 0.25-7.889 0.138-0.383 0.543-0.912 0.9-1.176 0.629-0.464 1.083-0.483 13.319-0.547l12.668-0.066v-12.326c0-8.265 0.086-12.573 0.261-13.075 0.144-0.413 0.623-0.973 1.064-1.247 0.775-0.479 1.075-0.493 8.606-0.426l7.802 0.069 0.62 0.583c0.34 0.32 0.727 0.969 0.858 1.441 0.143 0.515 0.239 5.679 0.24 12.926l0.001 12.067h24.904l0.817 0.549c1.36 0.913 1.44 1.534 1.37 9.569-0.07 6.815-0.1 7.169-0.58 7.816-0.96 1.292-0.72 1.271-14.083 1.275l-12.428 0.003v12.308c-0.001 13.572 0.026 13.318-1.518 14.452-0.645 0.473-1.025 0.5-7.925 0.559-6.663 0.057-7.326 0.025-8.226-0.39z"/>
  </g>
  <metadata>
    <rdf:RDF>
      <cc:Work>
        <dc:format>image/svg+xml</dc:format>
        <dc:type rdf:resource="http://purl.org/dc/dcmitype/StillImage"/>
        <cc:license rdf:resource="http://creativecommons.org/licenses/publicdomain/"/>
        <dc:publisher>
          <cc:Agent rdf:about="http://openclipart.org/">
            <dc:title>Openclipart</dc:title>
          </cc:Agent>
        </dc:publisher>
        <dc:title>First aid icon</dc:title>
        <dc:date>2009-03-21T08:51:46</dc:date>
        <dc:description>clip art, clipart, contour, contour, cross, cross, first aid, first aid, health, health, help, help, icon, icon, image, media, png, public domain, red, red, sign, sign, svg, symbol, symbol, </dc:description>
        <dc:source>http://openclipart.org/detail/22706/first-aid-icon-by-pitr</dc:source>
        <dc:creator>
          <cc:Agent>
            <dc:title>pitr</dc:title>
          </cc:Agent>
        </dc:creator>
        <dc:subject>
          <rdf:Bag>
            <rdf:li>clip art</rdf:li>
            <rdf:li>clipart</rdf:li>
            <rdf:li>contour</rdf:li>
            <rdf:li>cross</rdf:li>
            <rdf:li>first aid</rdf:li>
            <rdf:li>health</rdf:li>
            <rdf:li>help</rdf:li>
            <rdf:li>icon</rdf:li>
            <rdf:li>image</rdf:li>
            <rdf:li>media</rdf:li>
            <rdf:li>png</rdf:li>
            <rdf:li>public domain</rdf:li>
            <rdf:li>red</rdf:li>
            <rdf:li>sign</rdf:li>
            <rdf:li>svg</rdf:li>
            <rdf:li>symbol</rdf:li>
          </rdf:Bag>
        </dc:subject>
      </cc:Work>
      <cc:License rdf:about="http://creativecommons.org/licenses/publicdomain/">
        <cc:permits rdf:resource="http://creativecommons.org/ns#Reproduction"/>
        <cc:permits rdf:resource="http://creativecommons.org/ns#Distribution"/>
        <cc:permits rdf:resource="http://creativecommons.org/ns#DerivativeWorks"/>
      </cc:License>
    </rdf:RDF>
  </metadata>
</svg>