<?xml version="1.0" encoding="UTF-8" standalone="no"?>
<svg
   xmlns:dc="http://purl.org/dc/elements/1.1/"
   xmlns:cc="http://creativecommons.org/ns#"
   xmlns:rdf="http://www.w3.org/1999/02/22-rdf-syntax-ns#"
   xmlns:svg="http://www.w3.org/2000/svg"
   xmlns="http://www.w3.org/2000/svg"
   xmlns:sodipodi="http://sodipodi.sourceforge.net/DTD/sodipodi-0.dtd"
   xmlns:inkscape="http://www.inkscape.org/namespaces/inkscape"
   style="shape-rendering:geometricPrecision;text-rendering:geometricPrecision;image-rendering:optimizeQuality"
   fill-rule="evenodd"
   xml:space="preserve"
   clip-rule="evenodd"
   viewBox="0 0 58.282 58.282"
   id="svg3037"
   version="1.1"
   inkscape:version="0.48.3.1 r9886"
   width="100%"
   height="100%"
   sodipodi:docname="phone.svg"
   inkscape:export-filename="/home/koudri/Images/android/healthrecord/phone.png"
   inkscape:export-xdpi="222.36752"
   inkscape:export-ydpi="222.36752"><sodipodi:namedview
   pagecolor="#ffffff"
   bordercolor="#666666"
   borderopacity="1"
   objecttolerance="10"
   gridtolerance="10"
   guidetolerance="10"
   inkscape:pageopacity="0"
   inkscape:pageshadow="2"
   inkscape:window-width="1280"
   inkscape:window-height="750"
   id="namedview3052"
   showgrid="false"
   inkscape:zoom="9.0937168"
   inkscape:cx="29.141"
   inkscape:cy="29.141"
   inkscape:window-x="0"
   inkscape:window-y="0"
   inkscape:window-maximized="1"
   inkscape:current-layer="svg3037" />
 <defs
   id="defs3039">
  <style
   type="text/css"
   id="style3041">
    .fil0 {fill:#1B1C1F}
    .fil1 {fill:#1B1C1F;fill-rule:nonzero}
  </style>
 
  
  
 
   
   
   
  </defs>
 <g
   id="g4472"><path
     style="fill:#60a677;fill-opacity:1"
     inkscape:connector-curvature="0"
     d="m 34.095206,22.5 c 5.4466,3.1445 -2.8637,18.724 -8.8237,15.283 -1.0584,1.8332 -4.4676,7.7381 -5.526,9.5712 2.5146,1.4519 4.6432,2.3671 7.5585,0.70054 8.0946,-4.6273 17.005,-20.054 16.751,-29.256 -0.08805,-3.196 -1.971,-4.4482 -4.434,-5.8702 -1.0584,1.8332 -4.4676,7.738 -5.526,9.5712 z"
     class="fil0"
     id="_152222248" /><path
     style="fill:#60a677;fill-opacity:1"
     inkscape:connector-curvature="0"
     d="m 31.811206,22.24 c 0.58849,0.33978 1.3458,0.13697 1.6856,-0.45158 l 5.2095,-9.0232 c 0.33984,-0.58862 0.13704,-1.3459 -0.45152,-1.6857 l -2.738,-1.5808 c -0.58855,-0.33984 -1.346,-0.13685 -1.6858,0.4517 l -5.2095,9.0231 c -0.33978,0.58849 -0.13691,1.3458 0.45158,1.6856 l 2.738,1.5808 z"
     class="fil0"
     id="_150519168" /><path
     style="fill:#60a677;fill-opacity:1"
     inkscape:connector-curvature="0"
     d="m 17.579206,46.89 c 0.58849,0.33978 1.3458,0.13697 1.6856,-0.45164 l 5.2095,-9.0232 c 0.33984,-0.58855 0.13704,-1.3459 -0.45152,-1.6856 l -2.738,-1.5808 c -0.58855,-0.33978 -1.346,-0.13679 -1.6858,0.4517 l -5.2095,9.0231 c -0.33978,0.58855 -0.13691,1.3459 0.45158,1.6856 l 2.738,1.5808 z"
     class="fil0"
     id="_226148072" /><path
     class="fil1"
     d="m 29.140206,0 h -4.32e-4 v 0.006787 c -8.05,1.234e-4 -15.335,3.26 -20.604,8.5296 -5.2693,5.2693 -8.5291,12.554 -8.5293,20.604 h -0.0068 v 0.0014 h 0.0068 c 1.24e-4,8.05 3.26,15.335 8.5296,20.604 5.2694,5.2693 12.554,8.5291 20.604,8.5293 v 0.0068 h 0.0014 v -0.0068 c 8.05,-1.23e-4 15.335,-3.26 20.604,-8.5296 5.2693,-5.2694 8.5291,-12.554 8.5293,-20.604 h 0.0068 v -0.0014 h -0.0068 c -1.24e-4,-8.05 -3.26,-15.335 -8.5296,-20.604 -5.2693,-5.2693 -12.554,-8.5291 -20.604,-8.5293 V 0 h -9.68e-4 z m -4.32e-4,3.4758 v 0.00679 h 0.0014 V 3.4758 c 7.0792,1.851e-4 13.494,2.8753 18.141,7.5226 4.647699,4.6476 7.522899,11.063 7.522899,18.142 h -0.0068 v 0.0014 h 0.0068 c -1.85e-4,7.0792 -2.8753,13.494 -7.5226,18.141 -4.6476,4.6477 -11.062999,7.5229 -18.141999,7.5229 v -0.0068 h -0.0014 v 0.0068 c -7.0792,-1.85e-4 -13.494,-2.8753 -18.141,-7.5226 -4.6477,-4.6476 -7.5229,-11.063 -7.5229,-18.142 h 0.0068 v -0.0014 h -0.0068 c 1.85e-4,-7.0792 2.8753,-13.494 7.5226,-18.141 4.6476,-4.6477 11.063,-7.5229 18.142,-7.5229 z"
     id="path3048"
     inkscape:connector-curvature="0"
     style="fill:#60a677;fill-rule:nonzero;fill-opacity:1" /></g>
<metadata
   id="metadata3050"><rdf:RDF><cc:Work><dc:format>image/svg+xml</dc:format><dc:type
         rdf:resource="http://purl.org/dc/dcmitype/StillImage" /><cc:license
         rdf:resource="http://creativecommons.org/licenses/publicdomain/" /><dc:publisher><cc:Agent
           rdf:about="http://openclipart.org/"><dc:title>Openclipart</dc:title></cc:Agent></dc:publisher><dc:title>phone icon</dc:title><dc:date>2006-10-06T16:21:45</dc:date><dc:description>an icon representing a phone</dc:description><dc:source>http://openclipart.org/detail/399/phone-icon-by-molumen</dc:source><dc:creator><cc:Agent><dc:title>molumen</dc:title></cc:Agent></dc:creator><dc:subject><rdf:Bag><rdf:li>black &amp; white</rdf:li><rdf:li>button</rdf:li><rdf:li>circle</rdf:li><rdf:li>clip art</rdf:li><rdf:li>clipart</rdf:li><rdf:li>icon</rdf:li><rdf:li>phone</rdf:li><rdf:li>round</rdf:li><rdf:li>sign</rdf:li></rdf:Bag></dc:subject></cc:Work><cc:License
       rdf:about="http://creativecommons.org/licenses/publicdomain/"><cc:permits
         rdf:resource="http://creativecommons.org/ns#Reproduction" /><cc:permits
         rdf:resource="http://creativecommons.org/ns#Distribution" /><cc:permits
         rdf:resource="http://creativecommons.org/ns#DerivativeWorks" /></cc:License></rdf:RDF></metadata></svg>