<?xml version="1.0" encoding="UTF-8" standalone="no"?>
<svg
   xmlns:dc="http://purl.org/dc/elements/1.1/"
   xmlns:cc="http://creativecommons.org/ns#"
   xmlns:rdf="http://www.w3.org/1999/02/22-rdf-syntax-ns#"
   xmlns:svg="http://www.w3.org/2000/svg"
   xmlns="http://www.w3.org/2000/svg"
   xmlns:sodipodi="http://sodipodi.sourceforge.net/DTD/sodipodi-0.dtd"
   xmlns:inkscape="http://www.inkscape.org/namespaces/inkscape"
   id="svg2"
   viewBox="0 0 411.58814 601.43447"
   version="1.1"
   inkscape:version="0.48.3.1 r9886"
   width="100%"
   height="100%"
   sodipodi:docname="plume.svg"
   inkscape:export-filename="/home/koudri/Images/android/healthrecord/plume.png"
   inkscape:export-xdpi="14.365657"
   inkscape:export-ydpi="14.365657">
  <defs
     id="defs3054" />
  <sodipodi:namedview
     pagecolor="#ffffff"
     bordercolor="#666666"
     borderopacity="1"
     objecttolerance="10"
     gridtolerance="10"
     guidetolerance="10"
     inkscape:pageopacity="0"
     inkscape:pageshadow="2"
     inkscape:window-width="1280"
     inkscape:window-height="750"
     id="namedview3052"
     showgrid="false"
     fit-margin-top="0"
     fit-margin-left="0"
     fit-margin-right="0"
     fit-margin-bottom="0"
     inkscape:zoom="0.50361079"
     inkscape:cx="156.66005"
     inkscape:cy="290.32598"
     inkscape:window-x="0"
     inkscape:window-y="0"
     inkscape:window-maximized="1"
     inkscape:current-layer="svg2" />
  <g
     id="layer1"
     transform="matrix(0.18073805,0.98353127,-0.98353127,0.18073805,634.97938,-205.63867)"
     inkscape:export-xdpi="20.949917"
     inkscape:export-ydpi="20.949917"
     inkscape:export-filename="/home/koudri/Images/plume.png">
    <g
       id="g3820"
       transform="matrix(1.4119,-1.3751,1.4119,1.3751,-803.16,-111.45)"
       style="fill-rule:evenodd">
      <path
         id="path3822"
         style="opacity:0.57874002;color:#000000;fill:#1f5598"
         d="m 205.22,478.53 c -9.3228,0.20557 -32.409,40.138 -38.719,55.875 -2.9559,7.373 -4.3693,15.194 -4.9062,23.625 l 18.34,27.97 -18.6,-19.53 c -0.0333,8.4167 0.51776,17.394 1.125,27.094 l 12,14.844 -11.531,-6.375 c 0.34608,5.9871 0.66846,12.155 0.8125,18.688 0.53129,24.095 3.2621,61.668 7.8125,98.219 l 15.16,31.78 -14.03,-23.22 c 1.2784,9.6063 2.6675,19.06 4.1875,28.094 l 14.156,17 -13.5,-13.312 c 1.3937,8.0034 2.8954,15.596 4.4688,22.656 l 14,9.1562 -18.741,-5.1097 c 2.2337,8.2287 16.005,10.247 20.225,13.24 0,0 -18.352,-1.4767 -16.481,0.0653 5.136,4.2312 12.223,5.0179 14.951,6.2104 5.2176,2.2806 3.3255,2.0318 3.3255,2.0318 -1.7183,-0.31873 -8.3403,4.3107 -12.856,4.275 -3.2433,-0.0256 2.6433,0.16019 6.3662,-0.25953 14.31,-4.1628 7.819,-1.0595 8.9684,-1.9324 1.8048,-1.3706 -10.876,5.7242 -13.106,5.8769 -3.1577,0.21605 3.0489,1.4336 5.3547,0.35605 6.3347,-3.0329 12.819,-5.5291 19.655,-1.5848 4.907,2.8316 9.6512,-0.21607 7.8019,-1.3297 -1.7484,-1.8359 0.41271,0.30444 0.2971,0.43753 -1.4859,1.7106 -6.0522,-0.7293 -6.1023,-2.9946 -0.0714,-3.2319 9.9407,-1.7546 8.5089,-4.6529 -0.29476,-0.59665 4.1858,1.4365 -1.8251,0.80916 -2.1331,-0.31119 -2.9558,-0.90497 -4.4048,1.2467 0,0 1.8069,-3.3305 0.92239,-3.0232 -11.553,4.0142 6.8807,-4.0658 9.8015,-11.357 l -13.494,2.5441 10.051,-11.724 c 0.76355,-2.9062 1.512,-5.9353 2.25,-9.0312 l -13.54,7.78 14.06,-10.06 c 0.92178,-3.9543 1.8354,-8.0372 2.7188,-12.25 l -18.188,12.875 18.906,-16.406 c 1.3869,-6.8048 2.7087,-13.9 3.9688,-21.125 l -19.875,22 20.96,-28.38 c 7.2214,-43.29 11.924,-90.896 11.906,-120.09 l -13,8.4375 12.969,-10.656 c -0.009,-0.95912 -0.0111,-1.9608 -0.0312,-2.875 -0.0959,-4.3495 -0.20685,-8.6092 -0.34375,-12.812 l -13.281,12.094 13.188,-15.031 c -0.5639,-15.697 -1.5394,-30.203 -3.5,-42.625 l -18.11,15.38 14.19,-32.69 c -0.27488,-0.88823 -0.54855,-1.7758 -0.84375,-2.625 -2.007,-5.7734 -3.5651,-9.7348 -6.9062,-13.75 -6.5932,-7.9234 -20.233,-34.005 -27.531,-33.844 z"
         inkscape:connector-curvature="0" />
      <path
         id="path3824"
         d="m 205.03,478.51 c 0.98759,-6.7e-4 1.7961,80.659 1.8047,180.04 0.009,99.385 -0.7859,180.05 -1.7735,180.05 -0.98759,6.7e-4 -1.7961,-80.659 -1.8047,-180.04 -0.009,-99.385 0.78591,-180.05 1.7735,-180.05 z"
         inkscape:connector-curvature="0"
         style="fill:#f0e2e2;stroke:#000000;stroke-width:0.30447999;stroke-linecap:round" />
      <path
         id="path3826"
         d="m 202.28,842.66 c 2.174,-4.381 4.3103,-2.3783 5.4014,0.47766 l -2.514,-28.929 z"
         inkscape:connector-curvature="0" />
    </g>
  </g>
  <metadata
     id="metadata3050">
    <rdf:RDF>
      <cc:Work>
        <dc:format>image/svg+xml</dc:format>
        <dc:type
           rdf:resource="http://purl.org/dc/dcmitype/StillImage" />
        <cc:license
           rdf:resource="http://creativecommons.org/licenses/publicdomain/" />
        <dc:publisher>
          <cc:Agent
             rdf:about="http://openclipart.org/">
            <dc:title>Openclipart</dc:title>
          </cc:Agent>
        </dc:publisher>
        <dc:title>Feather</dc:title>
        <dc:date>2012-09-02T06:27:26</dc:date>
        <dc:description>a blue feather</dc:description>
        <dc:source>http://openclipart.org/detail/172047/feather-by-t-i-n-a-172047</dc:source>
        <dc:creator>
          <cc:Agent>
            <dc:title>T-i-n-a</dc:title>
          </cc:Agent>
        </dc:creator>
        <dc:subject>
          <rdf:Bag>
            <rdf:li>bird</rdf:li>
            <rdf:li>blue</rdf:li>
            <rdf:li>clip art</rdf:li>
            <rdf:li>clipart</rdf:li>
            <rdf:li>feather</rdf:li>
          </rdf:Bag>
        </dc:subject>
      </cc:Work>
      <cc:License
         rdf:about="http://creativecommons.org/licenses/publicdomain/">
        <cc:permits
           rdf:resource="http://creativecommons.org/ns#Reproduction" />
        <cc:permits
           rdf:resource="http://creativecommons.org/ns#Distribution" />
        <cc:permits
           rdf:resource="http://creativecommons.org/ns#DerivativeWorks" />
      </cc:License>
    </rdf:RDF>
  </metadata>
</svg>
