<?xml version="1.0" encoding="UTF-8" standalone="no"?>
<svg
   xmlns:dc="http://purl.org/dc/elements/1.1/"
   xmlns:cc="http://creativecommons.org/ns#"
   xmlns:rdf="http://www.w3.org/1999/02/22-rdf-syntax-ns#"
   xmlns:svg="http://www.w3.org/2000/svg"
   xmlns="http://www.w3.org/2000/svg"
   xmlns:sodipodi="http://sodipodi.sourceforge.net/DTD/sodipodi-0.dtd"
   xmlns:inkscape="http://www.inkscape.org/namespaces/inkscape"
   version="1.1"
   viewBox="0 0 299.53852 300.51845"
   id="svg4614"
   inkscape:version="0.48.3.1 r9886"
   width="100%"
   height="100%"
   sodipodi:docname="skull.svg">
  <sodipodi:namedview
     pagecolor="#ffffff"
     bordercolor="#666666"
     borderopacity="1"
     objecttolerance="10"
     gridtolerance="10"
     guidetolerance="10"
     inkscape:pageopacity="0"
     inkscape:pageshadow="2"
     inkscape:window-width="1280"
     inkscape:window-height="750"
     id="namedview4710"
     showgrid="false"
     fit-margin-top="0"
     fit-margin-left="0"
     fit-margin-right="0"
     fit-margin-bottom="0"
     inkscape:zoom="0.75454807"
     inkscape:cx="149.72809"
     inkscape:cy="150.27015"
     inkscape:window-x="0"
     inkscape:window-y="0"
     inkscape:window-maximized="1"
     inkscape:current-layer="svg4614" />
  <defs
     id="defs4616">
    <filter
       id="filter17923"
       color-interpolation-filters="sRGB">
      <feGaussianBlur
         stdDeviation="0.055443949"
         id="feGaussianBlur4619" />
    </filter>
    <filter
       id="filter18037"
       width="1.1873"
       y="-0.14451"
       x="-0.093633004"
       height="1.289"
       color-interpolation-filters="sRGB">
      <feGaussianBlur
         stdDeviation="0.29126231"
         id="feGaussianBlur4622" />
    </filter>
    <filter
       id="filter17436"
       color-interpolation-filters="sRGB">
      <feGaussianBlur
         stdDeviation="0.045629394"
         id="feGaussianBlur4625" />
    </filter>
    <filter
       id="filter17903"
       color-interpolation-filters="sRGB">
      <feGaussianBlur
         stdDeviation="0.029367602"
         id="feGaussianBlur4628" />
    </filter>
    <filter
       id="filter17338"
       color-interpolation-filters="sRGB">
      <feGaussianBlur
         stdDeviation="0.064355194"
         id="feGaussianBlur4631" />
    </filter>
    <filter
       id="filter17911"
       color-interpolation-filters="sRGB">
      <feGaussianBlur
         stdDeviation="0.029904609"
         id="feGaussianBlur4634" />
    </filter>
    <filter
       id="filter17446"
       width="1.2681"
       y="-0.063708"
       x="-0.13403"
       height="1.1274"
       color-interpolation-filters="sRGB">
      <feGaussianBlur
         stdDeviation="0.075756899"
         id="feGaussianBlur4637" />
    </filter>
    <filter
       id="filter17456"
       color-interpolation-filters="sRGB">
      <feGaussianBlur
         stdDeviation="0.12693139"
         id="feGaussianBlur4640" />
    </filter>
    <filter
       id="filter17841"
       width="1.6357"
       y="-0.16259"
       x="-0.31786001"
       height="1.3252"
       color-interpolation-filters="sRGB">
      <feGaussianBlur
         stdDeviation="0.11229684"
         id="feGaussianBlur4643" />
    </filter>
    <filter
       id="filter17837"
       width="1.6432"
       y="-0.27449"
       x="-0.32159999"
       height="1.549"
       color-interpolation-filters="sRGB">
      <feGaussianBlur
         stdDeviation="0.11229684"
         id="feGaussianBlur4646" />
    </filter>
    <filter
       id="filter17833"
       width="1.5495"
       y="-0.21726"
       x="-0.27476999"
       height="1.4345"
       color-interpolation-filters="sRGB">
      <feGaussianBlur
         stdDeviation="0.11229684"
         id="feGaussianBlur4649" />
    </filter>
    <filter
       id="filter17829"
       width="1.5118999"
       y="-0.28309"
       x="-0.25593999"
       height="1.5662"
       color-interpolation-filters="sRGB">
      <feGaussianBlur
         stdDeviation="0.11229684"
         id="feGaussianBlur4652" />
    </filter>
    <filter
       id="filter17825"
       width="2.01"
       y="-0.13346"
       x="-0.50501001"
       height="1.2668999"
       color-interpolation-filters="sRGB">
      <feGaussianBlur
         stdDeviation="0.11229684"
         id="feGaussianBlur4655" />
    </filter>
    <filter
       id="filter18027"
       width="1.2051001"
       y="-0.20354"
       x="-0.10253"
       height="1.4071"
       color-interpolation-filters="sRGB">
      <feGaussianBlur
         stdDeviation="0.2517821"
         id="feGaussianBlur4658" />
    </filter>
  </defs>
  <g
     transform="matrix(1.1263559,0,0,0.96100167,-70.546023,-194.93877)"
     id="g4660"
     inkscape:export-xdpi="43.27"
     inkscape:export-ydpi="43.27">
    <g
       transform="matrix(27.73,0,0,27.73,-4571.2,-3314)"
       id="g4662">
      <path
         d="m 171.91,127.51 c -2.529,0 -4.5808,1.9837 -4.5808,4.4285 0,1.2287 0.51817,2.3404 1.355,3.143 l 0.0764,2.3276 c 0,0.15208 0.65234,0.34007 0.80442,0.34007 l -0.47104,-1.4038 0.96111,0.42115 -0.005,0.96568 0.71726,-0.007 0.10786,-0.86613 c 0,0 0.44056,-0.10044 0.58309,-0.10183 0.0421,-4.3e-4 0.15128,0.95972 0.15128,0.95972 l 0.55918,0.14681 c 0,0 0.13902,-0.97305 0.25883,-0.97422 0.11981,-0.001 0.4967,0.1025 0.4967,0.1025 l 0.23766,0.86201 0.72377,-0.007 0.0754,-0.83267 0.83147,-0.40378 -0.227,1.2298 0.32652,-0.003 c 0.15208,0 0.27394,-0.1232 0.27394,-0.27528 l -0.0306,-2.4804 c 0.83683,-0.80259 1.3563,-1.9143 1.3563,-3.143 0,-2.4447 -2.0531,-4.4285 -4.5822,-4.4285 z"
         id="path4664"
         inkscape:connector-curvature="0"
         style="opacity:0.46154001;stroke:#000000;stroke-width:0.17105;filter:url(#filter17923)" />
      <path
         d="m 171.8,127.25 c -2.529,0 -4.5808,1.9837 -4.5808,4.4285 0,1.2287 0.51817,2.3404 1.355,3.143 l 0.0764,2.3276 c 0,0.15208 0.65234,0.34007 0.80442,0.34007 l -0.47104,-1.4038 0.96111,0.42115 -0.005,0.96568 0.71726,-0.007 0.10786,-0.86613 c 0,0 0.44056,-0.10044 0.58309,-0.10183 0.0421,-4.3e-4 0.15128,0.95972 0.15128,0.95972 l 0.55918,0.14681 c 0,0 0.13902,-0.97305 0.25883,-0.97422 0.11981,-0.001 0.4967,0.1025 0.4967,0.1025 l 0.23766,0.86201 0.72377,-0.007 0.0754,-0.83267 0.83147,-0.40378 -0.227,1.2298 0.32652,-0.003 c 0.15208,0 0.27394,-0.1232 0.27394,-0.27528 l -0.0306,-2.4804 c 0.83683,-0.80259 1.3563,-1.9143 1.3563,-3.143 0,-2.4447 -2.0531,-4.4285 -4.5822,-4.4285 z"
         id="path4666"
         inkscape:connector-curvature="0"
         style="fill:#cecece;stroke:#000000;stroke-width:0.17105" />
      <path
         style="color:#000000;fill:#ffffff;filter:url(#filter18037)"
         d="m 168.26,133.32 c 1.1772,0.50603 2.3573,0.88592 3.58,-0.56756 l -1.2747,2.6015 2.2269,0.41005 -0.75076,-2.8287 c 1.453,0.76599 2.5985,0.30195 3.6842,-0.40119 -0.1921,0.64786 -0.40762,1.2656 -0.91895,1.503 l -0.14821,0.79394 -1.1763,0.67152 1.37,0.21858 0.0177,1.6502 -0.2357,-0.0348 0.16491,-1.1351 -0.18157,-0.11442 -1.0748,0.37637 v 0.78585 l -0.34927,-0.0437 -0.17522,-0.78586 -0.82893,-0.0437 -0.24454,0.93395 -0.26196,-0.0702 -0.10501,-0.995 -1.0481,0.12241 5.9e-4,0.83837 -0.48025,0.0437 0.0873,-1.0478 -1.2652,-0.22715 0.20089,1.1534 -0.28052,-0.009 -0.0868,-1.2316 1.1788,-0.0351 -0.92538,-0.4714 0.17405,-0.92539 z"
         id="path4668"
         inkscape:connector-curvature="0" />
      <path
         d="m -412.86,330.22 c 0,23.275 -17.589,42.143 -39.286,42.143 -21.697,0 -39.286,-18.868 -39.286,-42.143 0,-23.275 17.589,-42.143 39.286,-42.143 21.697,0 39.286,18.868 39.286,42.143 z"
         transform="matrix(0.042761,0,0,0.042761,193.03,116.99)"
         id="path4670"
         inkscape:connector-curvature="0"
         style="stroke:#000000;stroke-width:4" />
      <path
         d="m 171.84,133.73 -0.82071,1.3823 1.5334,0.29157 -0.71273,-1.6738 z"
         id="path4672"
         inkscape:connector-curvature="0"
         style="fill-rule:evenodd;stroke:#000000;stroke-width:0.042761px" />
      <path
         d="m 168.36,134.47 0.14038,1.3391 1.1663,0.0432 -1.0583,-0.35636 -0.24837,-1.0259 z"
         id="path4674"
         inkscape:connector-curvature="0"
         style="fill-rule:evenodd;stroke:#000000;stroke-width:0.042761px" />
      <path
         d="m 174.93,134.12 -0.14038,1.3391 -1.1663,0.0432 1.0583,-0.35637 0.24837,-1.0259 z"
         id="path4676"
         inkscape:connector-curvature="0"
         style="fill-rule:evenodd;stroke:#000000;stroke-width:0.042761px" />
      <path
         d="m 169.56,129.8 c -0.8898,0 -1.6116,0.83452 -1.6116,1.8628 0,1.02828 0.72177,1.8628 1.6116,1.8628 0.0278,0 0.0554,-0.001 0.0829,-0.003 -0.8488,-0.053 -1.5234,-0.86587 -1.5234,-1.8599 0,-0.99405 0.67458,-1.8069 1.5234,-1.8599 -0.0275,-0.002 -0.055,-0.003 -0.0829,-0.003 z"
         id="path4678"
         inkscape:connector-curvature="0"
         style="opacity:0.61154001;fill-opacity:0.5339" />
      <path
         d="m 173.39,129.23 c -0.8898,0 -1.6116,0.83452 -1.6116,1.8628 0,1.02828 0.72177,1.8628 1.6116,1.8628 0.0278,0 0.0554,-0.001 0.0828,-0.003 -0.8488,-0.053 -1.5234,-0.86587 -1.5234,-1.8599 0,-0.99404 0.67457,-1.8069 1.5234,-1.8599 -0.0275,-0.002 -0.055,-0.003 -0.0828,-0.003 z"
         id="path4680"
         inkscape:connector-curvature="0"
         style="opacity:0.71538002;fill-opacity:0.53333004" />
      <path
         d="m 171.76,133.67 -0.90423,1.4972 1.6442,0.30028 -0.003,-0.0675 -1.5226,-0.28334 0.82056,-1.3645 -0.0352,-0.0821 z"
         id="path4682"
         inkscape:connector-curvature="0"
         style="fill-opacity:0.53333004;fill-rule:evenodd;filter:url(#filter17436)" />
      <path
         d="m -412.86,330.22 c 0,23.275 -17.589,42.143 -39.286,42.143 -21.697,0 -39.286,-18.868 -39.286,-42.143 0,-23.275 17.589,-42.143 39.286,-42.143 21.697,0 39.286,18.868 39.286,42.143 z"
         transform="matrix(0.042761,0,0,0.042761,189.19,117.57)"
         id="path4684"
         inkscape:connector-curvature="0"
         style="stroke:#000000;stroke-width:4" />
      <path
         style="color:#000000;fill:#ffffff;fill-opacity:0.41524999;filter:url(#filter17903)"
         d="m 168.48,131.72 c 0.57626,1.3082 1.4557,1.7717 2.8023,0.93408 -1.2556,1.2048 -2.5488,0.80784 -2.8023,-0.93408 z"
         id="path4686"
         inkscape:connector-curvature="0" />
      <path
         style="opacity:0.66538002;color:#000000;filter:url(#filter17338)"
         d="m 175.01,135.64 -1.3794,-0.11443 c 0.47163,-0.0278 1.0885,-0.10725 1.0885,-0.10725 0,0 0.15657,-0.67545 0.16257,-0.90726 0.75563,-0.98698 1.4967,-1.3822 1.3346,-3.7141 0.23824,1.0605 0.1743,2.7289 -1.199,4.0225 z"
         id="path4688"
         inkscape:connector-curvature="0" />
      <path
         style="color:#000000;fill:#ffffff;fill-opacity:0.41524999;filter:url(#filter17911)"
         d="m 172.33,131.16 c 0.57626,1.3082 1.4557,1.7717 2.8023,0.93408 -1.2556,1.2048 -2.5488,0.80784 -2.8023,-0.93408 z"
         id="path4690"
         inkscape:connector-curvature="0" />
      <path
         style="opacity:0.71923002;color:#000000;filter:url(#filter17446)"
         d="m 167.29,131.96 c 0.3103,1.0664 0.92485,2.1093 1.4646,2.8626 -0.57836,-0.22614 -1.5256,-1.5632 -1.4646,-2.8626 z"
         id="path4692"
         inkscape:connector-curvature="0" />
      <path
         style="opacity:0.32308003;color:#000000;fill:#ffffff;filter:url(#filter17456)"
         d="m 171.4,127.37 c -2.4582,0.68165 -3.2625,2.1256 -3.9366,3.1 0.42989,-1.9173 2.4474,-3.2934 3.9366,-3.1 z"
         id="path4694"
         inkscape:connector-curvature="0" />
      <path
         style="opacity:0.6;color:#000000;filter:url(#filter17841)"
         d="m 169.44,137.47 -0.41142,-1.3858 -0.11723,0.0244 0.27261,1.1485 c -0.11158,-0.0646 -0.22916,-0.15365 -0.38691,-0.17553 l -0.0521,-1.257 -0.1528,-0.0122 c 0.0119,0.4384 0.0802,0.9361 0.0958,1.3744 0.12277,0.16407 0.6356,0.24262 0.7521,0.28303 z"
         id="path4696"
         inkscape:connector-curvature="0" />
      <path
         style="opacity:0.6;color:#000000;filter:url(#filter17837)"
         d="m 169.96,136.47 h 0.11174 l 0.008,0.83006 c 0.17708,-0.0456 0.28794,-0.038 0.42686,-0.007 l 0.10786,-0.759 0.15963,0.0239 -0.13568,0.89391 -0.70236,-0.016 z"
         id="path4698"
         inkscape:connector-curvature="0" />
      <path
         style="opacity:0.6;color:#000000;filter:url(#filter17833)"
         d="m 171.34,136.44 0.15142,0.98088 0.53372,0.15867 0.29571,-0.95925 -0.0721,-0.1082 c -0.32457,0.30908 -0.26064,0.55897 -0.33176,0.82943 -0.075,-0.053 -0.18408,-0.0657 -0.2885,-0.0721 l -0.14425,-0.9304 z"
         id="path4700"
         inkscape:connector-curvature="0" />
      <path
         style="opacity:0.6;color:#000000;filter:url(#filter17829)"
         d="m 172.82,136.68 0.238,0.90876 0.71403,-0.0216 0.10098,-0.82943 -0.20916,-0.0649 -0.0505,0.72124 -0.43274,0.0216 -0.23801,-0.77894 z"
         id="path4702"
         inkscape:connector-curvature="0" />
      <path
         style="opacity:0.6;color:#000000;filter:url(#filter17825)"
         d="m 174.72,136.25 0.11539,-0.0505 -0.21637,1.1973 0.28129,-0.0144 0.0216,-1.8175 0.10819,-0.007 -0.0216,1.9474 -0.51208,0.0721 z"
         id="path4704"
         inkscape:connector-curvature="0" />
      <path
         style="color:#000000;fill:#ffffff;filter:url(#filter18027)"
         d="m 170.01,129.35 c 0.61065,0.19557 1.1512,0.30163 1.659,1.0478 0.91452,-2.308 3.1299,-1.346 4.2349,0 -1.2626,-2.4381 -2.6405,-2.6864 -4.0166,-2.9688 -0.76985,0.16991 -1.56,0.74095 -1.8773,1.921 z"
         id="path4706"
         inkscape:connector-curvature="0" />
    </g>
  </g>
  <metadata
     id="metadata4708">
    <rdf:RDF>
      <cc:Work>
        <dc:format>image/svg+xml</dc:format>
        <dc:type
           rdf:resource="http://purl.org/dc/dcmitype/StillImage" />
        <cc:license
           rdf:resource="http://creativecommons.org/licenses/publicdomain/" />
        <dc:publisher>
          <cc:Agent
             rdf:about="http://openclipart.org/">
            <dc:title>Openclipart</dc:title>
          </cc:Agent>
        </dc:publisher>
        <dc:title>Feraliminal Skull Remix</dc:title>
        <dc:date>2012-02-18T22:34:44</dc:date>
        <dc:description>A remix of the neat clip art by Feraliminal. The original file is feraliminal_skull.svg   Added a shadow and some shading. NOTE: THE SVG IS CREATED CORRECTLY, BUT PLEASE USE INKSCAPE TO CREATE A PNG VERSION. FOR SOME ODD REASON IT DOES NOT GENERATE PROPERLY HERE.\n\nInstall Inkscape from http://inkscape.org\n\nStart Inkscape.\nOn the menu bar, select\n[File &gt; Open]\n\nselect the SVG file you downloaded into Inkscape.\n\nOn the Menu Bar\n[File &gt; Export Bitmap]\n\nChoose the file format and set the dots per inch (dpi). It's that easy! </dc:description>
        <dc:source>http://openclipart.org/detail/168393/feraliminal-skull-remix-by-merlin2525</dc:source>
        <dc:creator>
          <cc:Agent>
            <dc:title>Merlin2525</dc:title>
          </cc:Agent>
        </dc:creator>
        <dc:subject>
          <rdf:Bag>
            <rdf:li>bones</rdf:li>
            <rdf:li>calavera</rdf:li>
            <rdf:li>clip art</rdf:li>
            <rdf:li>clipart</rdf:li>
            <rdf:li>crane</rdf:li>
            <rdf:li>craneo</rdf:li>
            <rdf:li>de</rdf:li>
            <rdf:li>death</rdf:li>
            <rdf:li>deces</rdf:li>
            <rdf:li>esqueleto</rdf:li>
            <rdf:li>huesos</rdf:li>
            <rdf:li>mort</rdf:li>
            <rdf:li>muerte</rdf:li>
            <rdf:li>os</rdf:li>
            <rdf:li>skeleton</rdf:li>
            <rdf:li>skull</rdf:li>
            <rdf:li>squelette</rdf:li>
            <rdf:li>tete</rdf:li>
          </rdf:Bag>
        </dc:subject>
      </cc:Work>
      <cc:License
         rdf:about="http://creativecommons.org/licenses/publicdomain/">
        <cc:permits
           rdf:resource="http://creativecommons.org/ns#Reproduction" />
        <cc:permits
           rdf:resource="http://creativecommons.org/ns#Distribution" />
        <cc:permits
           rdf:resource="http://creativecommons.org/ns#DerivativeWorks" />
      </cc:License>
    </rdf:RDF>
  </metadata>
</svg>
