<?xml version="1.0" encoding="UTF-8" standalone="no"?>
<!-- Created with Inkscape (http://www.inkscape.org/) -->

<svg
   xmlns:dc="http://purl.org/dc/elements/1.1/"
   xmlns:cc="http://creativecommons.org/ns#"
   xmlns:rdf="http://www.w3.org/1999/02/22-rdf-syntax-ns#"
   xmlns:svg="http://www.w3.org/2000/svg"
   xmlns="http://www.w3.org/2000/svg"
   xmlns:xlink="http://www.w3.org/1999/xlink"
   xmlns:sodipodi="http://sodipodi.sourceforge.net/DTD/sodipodi-0.dtd"
   xmlns:inkscape="http://www.inkscape.org/namespaces/inkscape"
   id="svg2965"
   sodipodi:docname="sms.svg"
   viewBox="0 0 144.00958 143.99036"
   version="1.1"
   inkscape:version="0.48.3.1 r9886"
   width="100%"
   height="100%"
   inkscape:export-filename="/home/koudri/Images/android/healthrecord/sms.png"
   inkscape:export-xdpi="90"
   inkscape:export-ydpi="90">
  <defs
     id="defs2967">
    <linearGradient
       id="linearGradient5480"
       y2="-148.13"
       gradientUnits="userSpaceOnUse"
       x2="387.75"
       y1="-298.54001"
       x1="379.92001">
      <stop
         id="stop3954"
         style="stop-color:#2c2d28;stop-opacity:1;"
         offset="0" />
      <stop
         id="stop3956"
         style="stop-color:#0146a8;stop-opacity:0"
         offset="1" />
    </linearGradient>
    <linearGradient
       id="linearGradient3383"
       y2="-147.97"
       gradientUnits="userSpaceOnUse"
       y1="-310.04999"
       gradientTransform="matrix(0.93571,0,0,0.97143,689.99,669.67)"
       x2="387.75"
       x1="381.89001"
       inkscape:collect="always">
      <stop
         id="stop3919-6"
         style="stop-color:#edf4fd;stop-opacity:.52846"
         offset="0" />
      <stop
         id="stop3921-27"
         style="stop-color:#175bb3;stop-opacity:0"
         offset="1" />
    </linearGradient>
    <style
       id="style6"
       type="text/css">.fil2 {fill:#FEFEFE}
    .fil1 {fill:#27576D}
    .fil0 {fill:#7AA3B0}
    .fil3 {fill:#27576D;fill-rule:nonzero}</style>
    <style
       id="style5339"
       type="text/css">.fil0 {fill:#1B1C1F}
    .fil1 {fill:#1B1C1F;fill-rule:nonzero}</style>
    <linearGradient
       y2="-147.97"
       x2="387.75"
       y1="-310.04999"
       x1="381.89001"
       gradientTransform="matrix(0.61431866,0,0,0.62983389,205.42267,608.04169)"
       gradientUnits="userSpaceOnUse"
       id="linearGradient3160"
       xlink:href="#linearGradient3913"
       inkscape:collect="always" />
    <linearGradient
       inkscape:collect="always"
       x1="381.89001"
       x2="387.75"
       gradientTransform="matrix(0.93571,0,0,0.97143,738.55,1229)"
       y1="-310.04999"
       gradientUnits="userSpaceOnUse"
       y2="-147.97"
       id="linearGradient3913">
      <stop
         offset="0"
         style="stop-color:#edf4fd;stop-opacity:.52846"
         id="stop3919-13" />
      <stop
         offset="1"
         style="stop-color:#175bb3;stop-opacity:0"
         id="stop3921-7" />
    </linearGradient>
    <linearGradient
       inkscape:collect="always"
       x1="379.92001"
       y1="-298.54001"
       x2="387.75"
       gradientUnits="userSpaceOnUse"
       y2="-148.13"
       id="linearGradient5440">
      <stop
         offset="0"
         style="stop-color:#0146a8"
         id="stop3954-1" />
      <stop
         offset="1"
         style="stop-color:#0146a8;stop-opacity:0"
         id="stop3956-1" />
    </linearGradient>
    <linearGradient
       inkscape:collect="always"
       xlink:href="#linearGradient5440"
       id="linearGradient3927"
       gradientUnits="userSpaceOnUse"
       x1="379.92001"
       y1="-298.54001"
       x2="387.75"
       y2="-148.13" />
    <linearGradient
       inkscape:collect="always"
       xlink:href="#linearGradient3913"
       id="linearGradient3929"
       gradientUnits="userSpaceOnUse"
       gradientTransform="matrix(0.61431866,0,0,0.62983389,205.42267,608.04169)"
       x1="381.89001"
       y1="-310.04999"
       x2="387.75"
       y2="-147.97" />
    <linearGradient
       inkscape:collect="always"
       xlink:href="#linearGradient3913"
       id="linearGradient3944"
       gradientUnits="userSpaceOnUse"
       gradientTransform="matrix(0.61431866,0,0,0.62983389,3.57143,700.96977)"
       x1="381.89001"
       y1="-310.04999"
       x2="387.75"
       y2="-147.97" />
    <linearGradient
       x1="379.92001"
       y1="-298.54001"
       x2="387.75"
       gradientUnits="userSpaceOnUse"
       y2="-148.13"
       id="linearGradient5480-6">
      <stop
         offset="0"
         style="stop-color:#2c2d28;stop-opacity:1;"
         id="stop3954-17" />
      <stop
         offset="1"
         style="stop-color:#0146a8;stop-opacity:0"
         id="stop3956-4" />
    </linearGradient>
    <linearGradient
       x1="379.92001"
       y1="-298.54001"
       x2="387.75"
       gradientUnits="userSpaceOnUse"
       y2="-148.13"
       id="linearGradient5480-8">
      <stop
         offset="0"
         style="stop-color:#2c2d28;stop-opacity:1;"
         id="stop3954-8" />
      <stop
         offset="1"
         style="stop-color:#0146a8;stop-opacity:0"
         id="stop3956-7" />
    </linearGradient>
    <linearGradient
       inkscape:collect="always"
       xlink:href="#linearGradient5480"
       id="linearGradient4195"
       gradientUnits="userSpaceOnUse"
       gradientTransform="translate(327.35208,223.1963)"
       x1="148.34306"
       y1="229.52823"
       x2="147.35265"
       y2="383.81396" />
    <linearGradient
       inkscape:collect="always"
       xlink:href="#linearGradient3383"
       id="linearGradient4197"
       gradientUnits="userSpaceOnUse"
       gradientTransform="matrix(0.97436691,0,0,1.2046199,123.38905,-290.35486)"
       x1="361.67639"
       y1="614.63672"
       x2="362.40973"
       y2="713.20813" />
    <linearGradient
       x1="379.92001"
       y1="-298.54001"
       x2="387.75"
       gradientUnits="userSpaceOnUse"
       y2="-148.13"
       id="linearGradient5480-2">
      <stop
         offset="0"
         style="stop-color:#2c2d28;stop-opacity:1;"
         id="stop3954-5" />
      <stop
         offset="1"
         style="stop-color:#0146a8;stop-opacity:0"
         id="stop3956-16" />
    </linearGradient>
    <style
       type="text/css"
       id="style5339-3">.fil0 {fill:#1B1C1F}
    .fil1 {fill:#1B1C1F;fill-rule:nonzero}</style>
    <style
       type="text/css"
       id="style6-2">.fil2 {fill:#FEFEFE}
    .fil1 {fill:#27576D}
    .fil0 {fill:#7AA3B0}
    .fil3 {fill:#27576D;fill-rule:nonzero}</style>
    <linearGradient
       x1="379.92001"
       y1="-298.54001"
       x2="387.75"
       gradientUnits="userSpaceOnUse"
       y2="-148.13"
       id="linearGradient5480-81">
      <stop
         offset="0"
         style="stop-color:#2c2d28;stop-opacity:1;"
         id="stop3954-81" />
      <stop
         offset="1"
         style="stop-color:#0146a8;stop-opacity:0"
         id="stop3956-0" />
    </linearGradient>
    <style
       type="text/css"
       id="style5339-4">.fil0 {fill:#1B1C1F}
    .fil1 {fill:#1B1C1F;fill-rule:nonzero}</style>
    <style
       type="text/css"
       id="style6-5">.fil2 {fill:#FEFEFE}
    .fil1 {fill:#27576D}
    .fil0 {fill:#7AA3B0}
    .fil3 {fill:#27576D;fill-rule:nonzero}</style>
    <linearGradient
       y2="-148.13"
       x2="387.75"
       y1="-298.54001"
       x1="379.92001"
       gradientUnits="userSpaceOnUse"
       id="linearGradient3769"
       xlink:href="#linearGradient5480-60"
       inkscape:collect="always" />
    <linearGradient
       y2="-147.97"
       x2="387.75"
       y1="-310.04999"
       x1="381.89001"
       gradientTransform="matrix(0.61431866,0,0,0.62983389,234.76742,652.92135)"
       gradientUnits="userSpaceOnUse"
       id="linearGradient2995"
       xlink:href="#linearGradient3383-8"
       inkscape:collect="always" />
    <linearGradient
       inkscape:collect="always"
       x1="381.89001"
       x2="387.75"
       gradientTransform="matrix(0.93571,0,0,0.97143,689.99,669.67)"
       y1="-310.04999"
       gradientUnits="userSpaceOnUse"
       y2="-147.97"
       id="linearGradient3383-8">
      <stop
         offset="0"
         style="stop-color:#edf4fd;stop-opacity:.52846"
         id="stop3919-6-9" />
      <stop
         offset="1"
         style="stop-color:#175bb3;stop-opacity:0"
         id="stop3921-27-07" />
    </linearGradient>
    <linearGradient
       x1="379.92001"
       y1="-298.54001"
       x2="387.75"
       gradientUnits="userSpaceOnUse"
       y2="-148.13"
       id="linearGradient5480-60">
      <stop
         offset="0"
         style="stop-color:#2c2d28;stop-opacity:1;"
         id="stop3954-2" />
      <stop
         offset="1"
         style="stop-color:#0146a8;stop-opacity:0"
         id="stop3956-42" />
    </linearGradient>
    <linearGradient
       inkscape:collect="always"
       xlink:href="#linearGradient3383-8"
       id="linearGradient4565"
       gradientUnits="userSpaceOnUse"
       gradientTransform="matrix(0.61431866,0,0,0.62983389,-171.68966,518.64886)"
       x1="381.89001"
       y1="-310.04999"
       x2="387.75"
       y2="-147.97" />
    <linearGradient
       inkscape:collect="always"
       xlink:href="#linearGradient3383"
       id="linearGradient3658"
       gradientUnits="userSpaceOnUse"
       gradientTransform="matrix(0.97436691,0,0,1.2046199,127.69623,-295.66813)"
       x1="361.67639"
       y1="614.63672"
       x2="362.40973"
       y2="713.20813" />
    <linearGradient
       inkscape:collect="always"
       xlink:href="#linearGradient5480"
       id="linearGradient3661"
       gradientUnits="userSpaceOnUse"
       gradientTransform="translate(331.65926,217.88303)"
       x1="148.34306"
       y1="229.52823"
       x2="147.35265"
       y2="383.81396" />
  </defs>
  <sodipodi:namedview
     id="base"
     bordercolor="#666666"
     inkscape:pageshadow="2"
     inkscape:window-y="0"
     pagecolor="#ffffff"
     inkscape:window-height="750"
     inkscape:window-maximized="1"
     inkscape:zoom="1.979899"
     inkscape:window-x="1920"
     showgrid="false"
     borderopacity="1.0"
     inkscape:current-layer="layer1"
     inkscape:cx="-105.22721"
     inkscape:cy="118.19248"
     inkscape:window-width="1280"
     inkscape:pageopacity="0.0"
     inkscape:document-units="px"
     fit-margin-top="0"
     fit-margin-left="0"
     fit-margin-right="0"
     fit-margin-bottom="0" />
  <g
     id="layer1"
     inkscape:label="Layer 1"
     inkscape:groupmode="layer"
     transform="translate(-406.93598,-444.63271)">
    <rect
       style="fill:#2c2d28;fill-opacity:1;stroke:#000000;stroke-width:1.96877348;stroke-miterlimit:4;stroke-opacity:1;stroke-dasharray:none;stroke-dashoffset:0"
       id="rect3031"
       width="142.04082"
       height="142.02159"
       x="407.92038"
       y="445.6171"
       rx="30.103729"
       ry="26.830206" />
    <path
       inkscape:connector-curvature="0"
       d="m 440.53403,488.17489 c -4.36459,0 -7.87833,3.47001 -7.87833,7.78029 v 39.28657 c 0,4.31028 3.51374,7.78029 7.87833,7.78029 h 46.92131 c 6.21717,8.6037 22.17419,30.631 22.32191,30.04748 0.14969,-0.5902 0.3796,-21.42433 0.47191,-30.04748 h 7.09837 c 4.36459,0 7.87832,-3.47001 7.87832,-7.78029 v -39.28657 c 0,-4.31028 -3.51373,-7.78029 -7.87832,-7.78029 h -76.81364 z m 11.69405,16.39112 c 1.10585,2e-5 2.09852,0.15692 2.97485,0.46601 0.88691,0.30912 1.61106,0.71611 2.1953,1.2359 0.59462,0.51988 1.05156,1.11021 1.35409,1.74243 0.31303,0.63228 0.47184,1.23966 0.47184,1.8438 0,0.66035 -0.1791,1.19939 -0.51288,1.62089 -0.32347,0.4215 -0.79,0.62813 -1.39512,0.62806 -0.43816,7e-5 -0.8154,-0.16928 -1.12844,-0.50649 -0.30246,-0.33721 -0.64996,-0.82491 -1.0463,-1.49933 -0.32347,-0.562 -0.69041,-1.02032 -1.12837,-1.35753 -0.4383,-0.33715 -1.03384,-0.5065 -1.78497,-0.5065 -0.77201,0 -1.41738,0.21902 -1.92855,0.66859 -0.51123,0.43557 -0.75914,0.98083 -0.75914,1.64119 0,0.60414 0.17838,1.1059 0.55398,1.49932 0.37553,0.37936 0.88178,0.69939 1.51822,0.95225 0.63643,0.25292 1.50981,0.56672 2.6261,0.93201 1.32501,0.43557 2.40696,0.956 3.2416,1.56014 0.84509,0.60414 1.48034,1.3187 1.908,2.14769 0.4383,0.81492 0.65653,1.74226 0.65653,2.79604 0,1.58769 -0.28789,2.95476 -0.86163,4.09282 -0.57387,1.12399 -1.41737,1.98306 -2.54404,2.57313 -1.11642,0.57607 -2.47615,0.87127 -4.08281,0.87127 -1.53364,0 -2.84368,-0.32003 -3.93916,-0.95231 -1.09548,-0.63228 -1.91975,-1.42924 -2.44149,-2.37052 -0.52154,-0.95542 -0.77956,-1.90144 -0.77956,-2.85686 0,-0.63222 0.17904,-1.17126 0.51288,-1.6209 0.33384,-0.44957 0.7403,-0.68881 1.25147,-0.68888 0.4488,7e-5 0.80641,0.15068 1.04637,0.44575 0.23996,0.29507 0.45806,0.72234 0.67701,1.25619 0.4383,1.0257 0.97468,1.7837 1.5798,2.28955 0.6155,0.50578 1.44929,0.76992 2.50301,0.76992 0.85546,0 1.55019,-0.26414 2.09268,-0.76992 0.55293,-0.51986 0.82066,-1.10234 0.82066,-1.76276 0,-1.01156 -0.28795,-1.76502 -0.86169,-2.22873 -0.56337,-0.46364 -1.48618,-0.89544 -2.79024,-1.31694 -1.47101,-0.49178 -2.68237,-1.00599 -3.6109,-1.53985 -0.91808,-0.54793 -1.6423,-1.26261 -2.19529,-2.14768 -0.5528,-0.88514 -0.84114,-1.96945 -0.84114,-3.26208 0,-1.15207 0.26845,-2.25661 0.77962,-3.28231 0.51117,-1.02567 1.26565,-1.82717 2.25681,-2.43138 1.00153,-0.61817 2.20252,-0.93201 3.6109,-0.93201 z m 13.23295,0 c 0.58431,2e-5 1.07067,0.27655 1.45671,0.81045 0.39634,0.51988 0.59494,1.24063 0.59494,2.16798 v 0.54702 c 0.74082,-1.19421 1.53489,-2.07189 2.37991,-2.63396 0.84515,-0.56198 1.77794,-0.85096 2.81079,-0.85096 1.0746,1e-5 1.99774,0.29519 2.76969,0.87126 0.77207,0.57608 1.4072,1.44752 1.90806,2.61366 0.71982,-1.18014 1.49406,-2.05167 2.31839,-2.61366 0.82408,-0.57604 1.74761,-0.8712 2.74914,-0.87126 1.16856,1e-5 2.17088,0.31382 3.01596,0.93201 0.84508,0.61822 1.47016,1.50211 1.88751,2.65424 0.3651,1.03971 0.55385,2.66923 0.55398,4.90321 v 11.24511 c -2e-4,1.20834 -0.20865,2.11086 -0.61556,2.715 -0.40678,0.6042 -0.9326,0.91178 -1.60022,0.91178 -0.64694,0 -1.18299,-0.30758 -1.60035,-0.91178 -0.40678,-0.61821 -0.61543,-1.52073 -0.61543,-2.715 v -9.68516 c 0,-1.23636 -0.0394,-2.21343 -0.12316,-2.95813 -0.0728,-0.74464 -0.2917,-1.37848 -0.63598,-1.88426 -0.34428,-0.50578 -0.86025,-0.74963 -1.55925,-0.7497 -0.56337,7e-5 -1.08911,0.21908 -1.60028,0.66865 -0.5008,0.44964 -0.90824,1.04457 -1.18996,1.80322 -0.31297,0.96948 -0.47184,2.68757 -0.47184,5.14633 v 7.6584 c 0,1.20835 -0.18817,2.11086 -0.59501,2.715 -0.40692,0.6042 -0.95315,0.91178 -1.62077,0.91178 -0.64694,0 -1.17295,-0.30758 -1.5798,-0.91178 -0.39648,-0.60414 -0.59501,-1.50665 -0.59501,-2.715 v -9.17815 c 0,-1.4472 -0.0296,-2.5625 -0.10255,-3.36335 -0.0729,-0.80085 -0.27167,-1.45952 -0.59495,-1.96537 -0.32347,-0.51979 -0.83976,-0.76986 -1.53876,-0.76992 -1.39801,6e-5 -2.32102,0.63221 -2.76976,1.92484 -0.4381,1.29263 -0.65653,3.15517 -0.65653,5.57179 v 7.78029 c 0,1.19428 -0.20864,2.09679 -0.61542,2.715 -0.39655,0.6042 -0.92256,0.91178 -1.57981,0.91178 -0.64681,0 -1.18292,-0.30758 -1.60028,-0.91178 -0.40685,-0.61821 -0.59507,-1.52072 -0.59494,-2.715 v -16.47217 c 0,-1.08185 0.16833,-1.88957 0.53336,-2.45163 0.37573,-0.56199 0.87213,-0.85097 1.47718,-0.85097 z m 32.51843,0 c 1.10586,2e-5 2.09859,0.15692 2.97492,0.46601 0.88677,0.30912 1.63154,0.71611 2.21578,1.2359 0.59462,0.51988 1.03101,1.11021 1.33354,1.74243 0.31296,0.63228 0.47178,1.23966 0.47191,1.8438 -1.3e-4,0.66035 -0.15862,1.19939 -0.4924,1.62089 -0.32347,0.4215 -0.79006,0.62813 -1.39512,0.62806 -0.43823,7e-5 -0.81547,-0.16928 -1.12844,-0.50649 -0.30252,-0.33721 -0.64989,-0.82491 -1.04637,-1.49933 -0.32334,-0.562 -0.71075,-1.02032 -1.14892,-1.35753 -0.43817,-0.33715 -1.03377,-0.5065 -1.7849,-0.5065 -0.77207,0 -1.41731,0.21902 -1.92855,0.66859 -0.51117,0.43557 -0.75914,0.98083 -0.75907,1.64119 0,0.60414 0.17838,1.1059 0.55391,1.49932 0.3756,0.37936 0.88178,0.69939 1.51822,0.95225 0.63637,0.25292 1.50981,0.56672 2.6261,0.93201 1.32501,0.43557 2.40696,0.956 3.24161,1.56014 0.84508,0.60414 1.48027,1.3187 1.90806,2.14769 0.43817,0.81492 0.65646,1.74226 0.65653,2.79604 0,1.58769 -0.28796,2.95476 -0.86176,4.09282 -0.57381,1.12399 -1.41731,1.98306 -2.54404,2.57313 -1.11623,0.57607 -2.47609,0.87127 -4.08275,0.87127 -1.53358,0 -2.84368,-0.32003 -3.93916,-0.95231 -1.09548,-0.63228 -1.89926,-1.42924 -2.42094,-2.37052 -0.52161,-0.95542 -0.80011,-1.90144 -0.80017,-2.85686 0,-0.63222 0.1791,-1.17126 0.51294,-1.6209 0.33378,-0.44957 0.76085,-0.68881 1.27202,-0.68888 0.44861,7e-5 0.78586,0.15068 1.02582,0.44575 0.2399,0.29507 0.47848,0.72234 0.69756,1.25619 0.43817,1.0257 0.95407,1.7837 1.55926,2.28955 0.61549,0.50578 1.44921,0.76992 2.503,0.76992 0.85546,0 1.55026,-0.26414 2.09268,-0.76992 0.55293,-0.51986 0.84121,-1.10234 0.84115,-1.76276 0,-1.01156 -0.28789,-1.76502 -0.86163,-2.22873 -0.56343,-0.46364 -1.50673,-0.89544 -2.81079,-1.31694 -1.47108,-0.49178 -2.66182,-1.00599 -3.59035,-1.53985 -0.91808,-0.54793 -1.66285,-1.26261 -2.21577,-2.14768 -0.553,-0.88514 -0.82066,-1.96945 -0.82066,-3.26208 0,-1.15207 0.2479,-2.25661 0.75907,-3.28231 0.51118,-1.02567 1.26566,-1.82717 2.25681,-2.43138 1.00154,-0.61817 2.20252,-0.93201 3.6109,-0.93201 z"
       style="fill:#e4e355;fill-opacity:1;stroke-width:1.89999998"
       id="rect5206" />
  </g>
  <metadata
     id="metadata3069">
    <rdf:RDF>
      <cc:Work>
        <dc:format>image/svg+xml</dc:format>
        <dc:type
           rdf:resource="http://purl.org/dc/dcmitype/StillImage" />
        <cc:license
           rdf:resource="http://creativecommons.org/licenses/publicdomain/" />
        <dc:publisher>
          <cc:Agent
             rdf:about="http://openclipart.org/">
            <dc:title>Openclipart</dc:title>
          </cc:Agent>
        </dc:publisher>
        <dc:title />
      </cc:Work>
      <cc:License
         rdf:about="http://creativecommons.org/licenses/publicdomain/">
        <cc:permits
           rdf:resource="http://creativecommons.org/ns#Reproduction" />
        <cc:permits
           rdf:resource="http://creativecommons.org/ns#Distribution" />
        <cc:permits
           rdf:resource="http://creativecommons.org/ns#DerivativeWorks" />
      </cc:License>
    </rdf:RDF>
  </metadata>
</svg>
